<svg width="17" height="15" viewBox="0 0 17 15" fill="none" xmlns="http://www.w3.org/2000/svg">
<path d="M9.57282 2.12001L9.57259 2.12025L8.95357 2.75518L8.59556 3.1224L8.23755 2.75518L7.61853 2.12025L7.61795 2.11965C6.20237 0.662875 3.93541 0.455967 2.43684 1.72688L9.57282 2.12001ZM9.57282 2.12001C10.9919 0.66258 13.2559 0.456115 14.7543 1.72688C16.504 3.2134 16.5976 5.88703 15.0277 7.49969L15.0276 7.49979M9.57282 2.12001L15.0276 7.49979M15.0276 7.49979L8.94744 13.749C8.9474 13.749 8.94737 13.749 8.94734 13.7491C8.75088 13.9508 8.4371 13.9508 8.24064 13.7491C8.24061 13.749 8.24057 13.749 8.24054 13.749L2.1606 7.5M15.0276 7.49979L2.1606 7.5M2.1606 7.5C0.593459 5.88734 0.687051 3.21352 2.43676 1.72695L2.1606 7.5Z" stroke="#F5C518"/>
</svg>
