<svg width="63" height="37" viewBox="0 0 63 37" fill="none" xmlns="http://www.w3.org/2000/svg">
<path d="M0.439835 21.9C0.439835 31.6 6.78984 36.4 14.9398 36.4C23.0398 36.4 29.8398 31.6 29.8398 21.9V0.950003H21.2898V21.95C21.2898 26.1 19.1398 28.5 15.0898 28.5C11.0398 28.5 8.98984 26.1 8.98984 21.95V0.950003H0.439835V21.9Z" fill="#F5C518"/>
<path d="M44.3937 16.65V7.85H49.0437C52.4437 7.85 53.8937 9.55 53.8937 12.25C53.8937 14.95 52.4437 16.65 49.0437 16.65H44.3937ZM62.5938 12.25C62.5938 5.8 58.2937 0.950003 49.6937 0.950003H35.8438V36.05H44.3937V23.45H49.6937C58.6437 23.45 62.5938 18.05 62.5938 12.25Z" fill="#F5C518"/>
</svg>
