<?xml version="1.0" standalone="no"?>
<!DOCTYPE svg PUBLIC "-//W3C//DTD SVG 1.1//EN" "http://www.w3.org/Graphics/SVG/1.1/DTD/svg11.dtd" >
<svg xmlns="http://www.w3.org/2000/svg">
<metadata>Generated by IcoMoon</metadata>
<defs>
<font id="biletsepeti" horiz-adv-x="1024">
<font-face units-per-em="1024" ascent="960" descent="-64" />
<missing-glyph horiz-adv-x="1024" />
<glyph unicode="&#x20;" horiz-adv-x="512" d="" />
<glyph unicode="&#xe900;" glyph-name="iata" horiz-adv-x="1589" d="M226.671-64l65.179 324.945h105.314l-65.208-324.945zM544.604 42.324h67.084l-18.062 119.337-49.050-119.337zM397.164-64l159.472 324.945h104.304l66.16-324.945h-98.274l-5.020 38.115h-105.314l-17.023-38.115zM823.412-64l36.095 244.704h-92.33l15.033 82.232h283.829l-16.042-82.232h-87.194l-36.095-244.704zM1177.441 42.324h67.199l-18.062 119.337-49.050-119.337zM1030.059-64l159.472 324.945h104.304l65.151-324.945h-98.332l-5.020 38.115h-104.391l-17.052-38.115zM1588.628 628.044h-495.438c-18.062-91.263-82.232-166.483-207.743-219.631 17.913-47.602 61.846-81.409 114.018-84.237l0.327-0.014h268.883c38.796 4.093 71.020 28.636 85.976 62.512l0.266 0.676h-273.759c-16.042 2.885-18.062 16.042-1.010 18.062h269.777c37.587 5.831 68.522 29.797 83.964 62.512l0.287 0.677h-312.913c-16.042 2.020-16.042 16.042 0 18.062h314.904c32.085 0 61.169 37.105 72.133 62.179h-346.931c-17.052 2.020-17.052 18.062 0 19.043h353.048c29.084-1.010 56.177 29.084 74.21 60.188zM0 628.044h496.448c18.062-91.263 81.251-166.483 206.589-219.631-17.734-47.343-61.224-81.055-112.971-84.233l-0.364-0.018h-268.768c-38.91 3.784-71.265 28.447-85.982 62.512l-0.26 0.676h272.807c17.052 2.885 18.062 16.042 1.010 18.062h-268.825c-35.114 0-66.189 31.104-85.261 63.188h313.923c15.033 2.020 15.033 16.042 0 18.062h-315.914c-31.104 0-60.188 37.105-72.133 62.179h346.931c18.062 2.020 18.062 18.062 0 19.043h-354.029c-27.035-1.039-54.157 29.055-73.201 60.159zM633.847 901.832c17.421-15.49 37.65-28.324 59.746-37.586l1.423-0.529c20.144 37.363 45.297 69.187 75.050 96.004l0.314 0.279c-52.341-6.899-98.854-27.714-136.897-58.567l0.508 0.399zM546.595 720.288h110.335c1.911 46.594 13.179 90.113 31.962 129.347l-0.858-1.989c-25.876 10.708-48.116 24.903-67.403 42.307l0.204-0.181c-43.727-43.574-71.592-103.041-74.195-169l-0.015-0.484zM785.297 824.592v-104.304h-110.335c1.167 44.159 11.013 85.726 27.883 123.465l-0.819-2.051c24.572-9.583 52.996-15.723 82.675-17.032l0.566-0.020zM955.791 901.832c-17.22-15.255-37.091-28.052-58.738-37.548l-1.45-0.567c-20.388 37.223-45.455 69.004-74.947 96.036l-0.274 0.247c51.979-7.11 98.124-27.892 135.914-58.566l-0.506 0.398zM1043.043 720.288h-110.335c-1.684 46.416-12.222 89.952-29.965 129.557l0.881-2.199c25.287 11.7 47.073 25.784 66.582 42.454l-0.393-0.328c43.88-43.369 71.567-103.039 73.223-169.174l0.006-0.31zM804.341 824.592v-104.304h110.306c-0.897 44.229-11.153 85.848-28.857 123.252l0.783-1.838c-24.257-9.479-52.319-15.609-81.617-17.029l-0.615-0.024zM633.847 520.71c17.651 14.845 37.795 27.603 59.536 37.453l1.632 0.662c19.823-37.119 44.964-68.639 74.846-94.893l0.374-0.322c-52.375 5.818-99.075 26.433-136.836 57.515l0.447-0.357zM546.595 702.254h110.335c1.911-46.594 13.179-90.113 31.962-129.347l-0.858 1.989c-25.338-11.060-47.166-24.851-66.55-41.417l0.361 0.301c-44.323 42.935-72.626 102.18-75.206 168.032l-0.015 0.471zM785.297 597.95v104.304h-110.335c0.939-43.774 10.812-85.011 27.857-122.281l-0.793 1.934c24.585 8.797 52.999 14.554 82.544 16.015l0.698 0.027zM955.791 520.71c-17.363 14.9-37.182 27.689-58.613 37.579l-1.575 0.652c-19.823-37.119-44.964-68.639-74.846-94.893l-0.374-0.322c51.983 6.233 98.266 26.778 135.878 57.531l-0.47-0.373zM1043.043 702.254h-110.335c-1.562-46.405-12.113-89.96-29.956-129.518l0.872 2.16c25.256-11.629 47.024-25.368 66.72-41.538l-0.53 0.422c43.212 43.424 70.701 102.529 73.187 168.038l0.014 0.465zM804.341 597.95v104.304h110.306c-0.91-43.864-11.166-85.116-28.847-122.143l0.772 1.797c-24.263 8.698-52.317 14.447-81.481 16.010l-0.75 0.032zM785.297 948.978c-30.436-24.938-55.094-55.713-72.484-90.734l-0.717-1.596c21.682-8.303 46.749-13.401 72.921-14.046l0.279-0.005v106.382zM804.341 948.978c30.377-24.99 55.022-55.75 72.476-90.727l0.724-1.603c-21.671-8.114-46.712-13.193-72.822-14.042l-0.379-0.010v106.382zM785.297 473.593c-30.667 24.736-55.376 55.565-72.511 90.76l-0.69 1.57c21.757 8.004 46.879 12.76 73.076 13.041l0.125 0.001v-105.314zM804.341 472.583c30.372 25.317 55.018 56.383 72.467 91.644l0.733 1.638c-21.747 7.832-46.845 12.571-72.986 13.039l-0.214 0.003v-106.324z" />
<glyph unicode="&#xe901;" horiz-adv-x="785" d="M380.744 335.159c-15.1-3.586-27.353-13.554-33.959-26.827l-0.133-0.294c-3.339-6.623-5.294-14.436-5.294-22.705 0-18.888 10.201-35.393 25.394-44.308l0.242-0.131c5.117-2.994 8.499-8.462 8.499-14.721 0-0.017 0-0.034 0-0.051v0.003-110.943c0-4.715 3.822-8.537 8.537-8.537v0h16.998c4.715 0 8.537 3.822 8.537 8.537v0 110.98c0 0.047-0.001 0.103-0.001 0.159 0 6.129 3.288 11.491 8.196 14.417l0.077 0.042c15.639 8.973 26.003 25.573 26.003 44.594 0 28.299-22.941 51.241-51.241 51.241-4.22 0-8.322-0.51-12.245-1.472l0.351 0.073z" />
<glyph unicode="&#xe902;" horiz-adv-x="785" d="M750.931 482.138h-716.802c-18.849 0-34.129-15.28-34.129-34.129v0-477.843c0-18.849 15.28-34.129 34.129-34.129v0h716.802c18.849 0 34.129 15.28 34.129 34.129v0 477.843c0 18.849-15.28 34.129-34.129 34.129v0zM446.849 219.495c-1.892-1.538-3.101-3.854-3.135-6.454v-123.433c0-9.388-7.61-16.998-16.998-16.998v0h-68.315c-9.362 0.064-16.935 7.636-16.998 16.992v123.433c-0.029 2.602-1.231 4.918-3.101 6.447l-0.015 0.012c-19.004 15.796-31.015 39.441-31.015 65.892 0 13.596 3.173 26.45 8.819 37.863l-0.223-0.5c11.155 22.862 31.694 39.672 56.466 45.554l0.573 0.115c5.893 1.452 12.659 2.284 19.619 2.284 47.159 0 85.388-38.23 85.388-85.388 0-26.414-11.993-50.026-30.831-65.689l-0.139-0.113z" />
<glyph unicode="&#xe903;" horiz-adv-x="785" d="M715.801 534.153c-12.617 237.807-152.796 425.847-323.252 425.847s-310.636-188.040-323.252-425.847c-0.010-0.22-0.016-0.478-0.016-0.737 0-9.471 7.678-17.149 17.149-17.149 0.012 0 0.024 0 0.037 0h85.575c0.005 0 0.010 0 0.016 0 9.129 0 16.577 7.196 16.981 16.225l0.001 0.036c10.086 172.59 97.382 308.010 203.546 308.010s193.46-135.42 203.565-308.010c0.405-9.066 7.854-16.262 16.982-16.262 0.006 0 0.011 0 0.017 0h85.576c9.444 0.023 17.091 7.684 17.091 17.131 0 0.266-0.006 0.53-0.018 0.793l0.001-0.037z" />
<glyph unicode="&#xe904;" horiz-adv-x="1058" d="M584.257 457.359l-17.196 145.493 95.318-3.588 83.885-136.888z" />
<glyph unicode="&#xe905;" horiz-adv-x="1058" d="M595.737 326.064l-65.244-198.387 98.192 5.018 129.726 184.857z" />
<glyph unicode="&#xe906;" horiz-adv-x="1058" d="M212.213 531.427s66.16-167.77 83.885-188.321 657.812-16.777 657.812-16.777 85.718 8.388 89.446 38.199c0.741 4.123 1.165 8.869 1.165 13.714 0 23.677-10.121 44.991-26.272 59.85l-0.058 0.053c-18.641 13.981-69.904 24.218-93.205 23.301s-518.983 0-518.983 0l-80.125 82.922z" />
<glyph unicode="&#xe907;" horiz-adv-x="1058" d="M559.682-64c-0.307-0.040-0.663-0.063-1.023-0.063-2.234 0-4.261 0.883-5.752 2.318l0.003-0.003c-126.386 63.193-230.186 166.931-304.673 311.399-1.254 2.284-1.991 5.006-1.991 7.899 0 9.203 7.46 16.663 16.663 16.663 6.309 0 11.8-3.507 14.629-8.677l0.044-0.087c69.904-133.144 164.74-232.438 282.101-291.127q179.405 84.63 284.276 291.127c2.875 5.273 8.378 8.792 14.703 8.792 9.218 0 16.691-7.473 16.691-16.691 0-2.893-0.736-5.614-2.031-7.986l0.044 0.087c-74.471-148.942-178.286-252.757-309.131-311.43 2.206-2.221-0.047-2.221-4.552-2.221z" />
<glyph unicode="&#xe908;" horiz-adv-x="1058" d="M954.609 515.986h-4.52c-7.958 1.785-13.816 8.79-13.816 17.164 0 1.115 0.104 2.206 0.303 3.264l-0.017-0.109c14.34 67.345 24.812 147.082 29.173 228.442l0.171 3.997c-180.554 29.329-365.598 130.891-406.22 155.715-42.874-24.855-225.681-124.118-406.22-155.715 2.074-57.541 7.762-111.97 16.889-165.225l-1.029 7.258c0.213-1.018 0.335-2.188 0.335-3.386 0-9.532-7.728-17.26-17.26-17.26-8.334 0-15.288 5.907-16.905 13.762l-0.019 0.112c-8.881 52.721-14.601 114.309-15.84 176.995l-0.020 1.291c0.373 9.076 7.008 16.499 15.681 18.080l0.117 0.018c198.574 29.282 415.245 155.668 417.498 157.921 2.322 1.069 5.038 1.693 7.899 1.693s5.578-0.623 8.019-1.742l-0.12 0.049c2.252-2.252 218.877-128.639 417.498-157.921 8.771-1.618 15.383-9.034 15.75-18.060l0.001-0.038c-1.877-90.562-12.47-177.571-30.981-261.61l1.636 8.852c-1.676-7.818-8.527-13.594-16.727-13.594-0.45 0-0.895 0.017-1.336 0.051l0.058-0.004z" />
<glyph unicode="&#xe909;" horiz-adv-x="1058" d="M805.729 710.070h-4.52c-91.449 21.616-172.071 55.819-244.944 101.282l3.418-1.987c-69.442-43.472-150.048-77.673-235.968-98.185l-5.511-1.11c-1.018-0.213-2.188-0.335-3.386-0.335-9.532 0-17.26 7.728-17.26 17.26 0 8.334 5.907 15.288 13.762 16.905l0.112 0.019c155.653 38.354 236.959 99.295 239.227 101.547 2.788 2.125 6.321 3.404 10.152 3.404s7.363-1.279 10.193-3.434l-0.041 0.030s81.244-60.925 239.227-101.547c7.964-1.78 13.828-8.789 13.828-17.166 0-1.109-0.103-2.194-0.299-3.246l0.017 0.109c-2.376-7.856-9.525-13.488-17.997-13.546h-0.007z" />
<glyph unicode="&#xe90a;" horiz-adv-x="1058" d="M589.011 441.514c-8.417 0.279-15.471 5.809-18.011 13.407l-0.040 0.139-27.092 146.69c0 4.52 0 11.278 4.52 13.546 2.95 4.114 7.718 6.763 13.105 6.763 0.15 0 0.299-0.002 0.448-0.006h90.247c0.51 0.068 1.101 0.106 1.7 0.106 5.046 0 9.452-2.74 11.811-6.814l0.035-0.066 101.547-146.69c2.164-2.919 3.464-6.591 3.464-10.567 0-9.858-7.991-17.849-17.849-17.849-6.237 0-11.727 3.199-14.918 8.046l-0.042 0.067-97.042 139.917h-60.925l22.571-126.371c0.18-0.943 0.282-2.028 0.282-3.137 0-8.378-5.864-15.386-13.711-17.144l-0.117-0.022z" />
<glyph unicode="&#xe90b;" horiz-adv-x="1058" d="M620.608 116.539h-90.269c-0.128-0.004-0.279-0.006-0.43-0.006-5.393 0-10.166 2.655-13.083 6.73l-0.033 0.049c-1.873 2.971-2.985 6.586-2.985 10.46 0 1.9 0.267 3.738 0.767 5.478l-0.034-0.14 65.446 191.817c2.592 6.862 9.106 11.654 16.739 11.654 9.858 0 17.849-7.991 17.849-17.849 0-1.812-0.27-3.562-0.772-5.21l0.033 0.126-58.673-169.323h58.673l135.412 185.059c3.233 4.914 8.723 8.113 14.96 8.113 9.858 0 17.849-7.991 17.849-17.849 0-3.976-1.3-7.649-3.498-10.615l0.034 0.048-139.932-191.723c-4.886-4.044-11.151-6.578-17.999-6.818l-0.052-0.001z" />
<glyph unicode="&#xe90c;" horiz-adv-x="1058" d="M954.609 308.355h-600.304c-50.698 3.955-91.682 41.101-101.427 89.552l-0.12 0.717c-6.255 26.587-14.789 49.893-25.71 71.8l0.855-1.896-40.591 63.255c-2.116 2.393-3.408 5.559-3.408 9.025s1.292 6.632 3.421 9.040l-0.013-0.015c3.338 5.35 9.14 8.89 15.779 9.025h133.164c5.436-0.365 10.216-2.904 13.524-6.747l0.021-0.026 58.595-67.698c5.107-5.433 12.289-8.866 20.274-9.025h496.596c38.384-0.722 74.096-11.533 104.782-29.88l-0.967 0.536c17.82-12.405 29.337-32.789 29.337-55.862 0-21.083-9.616-39.92-24.7-52.366l-0.116-0.093-6.773-4.52c-19.827-15.218-44.908-24.5-72.144-24.823l-0.075-0.001zM232.438 525.011l24.855-38.37v-2.252c10.762-22.091 20.762-48.32 28.495-75.503l0.849-3.489c7.54-33.655 35.253-59.101 69.522-63.156l0.382-0.037h598.067c20.34 0.872 38.974 7.497 54.509 18.275l-0.341-0.224 6.773 4.52c6.923 5.964 11.279 14.741 11.279 24.536 0 0.112-0.001 0.224-0.002 0.336v-0.017c0.051 0.608 0.080 1.317 0.080 2.032 0 9.813-5.451 18.352-13.491 22.755l-0.135 0.068c-24.846 16.429-55.2 26.444-87.854 27.074l-0.163 0.002h-498.742c-0.476-0.014-1.035-0.022-1.597-0.022-17.445 0-33.054 7.864-43.475 20.24l-0.071 0.086-54.168 60.925h-94.759z" />
<glyph unicode="&#xe90d;" horiz-adv-x="1058" d="M1040.358 373.816h-106.068c-9.969 0-18.051 8.082-18.051 18.051s8.082 18.051 18.051 18.051h106.068c0.074 0.001 0.162 0.002 0.25 0.002 9.832 0 17.802-7.97 17.802-17.802 0-0.088-0.001-0.176-0.002-0.264v0.013c0.044-0.454 0.069-0.981 0.069-1.514 0-9.171-7.435-16.606-16.606-16.606-0.533 0-1.060 0.025-1.58 0.074l0.066-0.005z" />
<glyph unicode="&#xe90e;" horiz-adv-x="1058" d="M600.289 373.816h-327.228c-9.969 0-18.051 8.082-18.051 18.051s8.082 18.051 18.051 18.051h327.228c9.969 0 18.051-8.082 18.051-18.051s-8.082-18.051-18.051-18.051v0z" />
<glyph unicode="&#xe90f;" horiz-adv-x="1058" d="M185.059 400.892h-135.412c-0.074-0.001-0.162-0.002-0.25-0.002-9.832 0-17.802 7.97-17.802 17.802 0 0.088 0.001 0.176 0.002 0.264v-0.013c-0.044 0.454-0.069 0.981-0.069 1.514 0 9.171 7.435 16.606 16.606 16.606 0.533 0 1.060-0.025 1.58-0.074l-0.066 0.005h135.412c9.969 0 18.051-8.082 18.051-18.051s-8.082-18.051-18.051-18.051v0z" />
<glyph unicode="&#xe910;" horiz-adv-x="1058" d="M126.371 475.364h-108.32c-0.074-0.001-0.162-0.002-0.25-0.002-9.832 0-17.802 7.97-17.802 17.802 0 0.088 0.001 0.176 0.002 0.264v-0.013c0.099 8.812 7.266 15.918 16.092 15.918 0.69 0 1.37-0.043 2.038-0.128l-0.079 0.008h108.32c0.088 0.002 0.193 0.002 0.297 0.002 9.832 0 17.802-7.97 17.802-17.802 0-0.088-0.001-0.176-0.002-0.264v0.013c-0.861-8.907-8.308-15.814-17.368-15.814-0.256 0-0.511 0.006-0.765 0.016l0.036-0.001z" />
<glyph unicode="&#xe911;" horiz-adv-x="1058" d="M139.917 324.169h-121.866c-0.074-0.001-0.162-0.002-0.25-0.002-9.832 0-17.802 7.97-17.802 17.802 0 0.088 0.001 0.176 0.002 0.264v-0.013c-0.044 0.454-0.069 0.981-0.069 1.514 0 9.171 7.435 16.606 16.606 16.606 0.533 0 1.060-0.025 1.58-0.074l-0.066 0.005h121.866c9.969 0 18.051-8.082 18.051-18.051s-8.082-18.051-18.051-18.051v0z" />
<glyph unicode="&#xe912;" horiz-adv-x="1075" d="M286.616 878.358l-71.387 71.441c-123.328-93.237-204.969-236.003-215.15-398.153l-0.078-1.557h102.062c7.605 136.373 78.298 254.781 183.139 327.342l1.415 0.927z" />
<glyph unicode="&#xe913;" horiz-adv-x="1075" d="M972.978 550.089h102.062c-8.044 163.175-88.094 306.148-208.803 398.774l-1.271 0.937-71.441-71.441c103.457-75.138 171.943-192.999 179.404-327.145l0.050-1.124z" />
<glyph unicode="&#xe914;" horiz-adv-x="1075" d="M870.916 524.551c0.004 0.579 0.006 1.263 0.006 1.948 0 155.721-108.356 286.134-253.784 319.954l-2.217 0.434v36.571c0 42.273-34.269 76.542-76.542 76.542s-76.542-34.269-76.542-76.542v0-35.721c-147.695-34.523-256.017-165.082-256.017-320.941 0-0.491 0.001-0.981 0.003-1.472v0.076-281.515l-102.062-102.062v-51.022h870.916v51.022l-102.062 102.062v280.665z" />
<glyph unicode="&#xe915;" horiz-adv-x="1075" d="M537.511-64h20.42c33.949 5.177 61.232 29.052 71.27 60.615l0.172 0.626c6.423 11.712 10.201 25.663 10.201 40.496 0 0.114 0 0.229-0.001 0.343v-0.018h-204.124c0.164-56.301 45.761-101.898 102.046-102.062h0.016z" />
<glyph unicode="&#xe916;" horiz-adv-x="1254" d="M186.402 727.255s56.551-195.523 196.291-338.337 326.881-269.619 326.881-269.619l102.343 51.172s-51.172 67.209-22.142 91.657 93.179 58.001 144.351 34.366 71.052-13.050 71.052-13.050l77.142 50.403s-286.44 194.073-303.246 235.312-176.426 249.754-185.604 288.702c-8.756 33.298-18.665 61.508-30.514 88.677l1.513-3.894-108.463-54.246s32.843-44.299 10.687-84.784-30.552-62.627-70.269-66.441c-39.716-3.060-93.179 22.911-101.575 42.776s-108.448-52.694-108.448-52.694z" />
<glyph unicode="&#xe917;" horiz-adv-x="1254" d="M987.575 41.403c-3.060 4.582-6.105 7.642-8.396 11.455 1.7 1.274 3.193 2.524 4.618 3.846l-0.036-0.033c3.155-2.917 5.925-6.175 8.274-9.736l0.122-0.197c-1.591-1.63-3.092-3.37-4.482-5.199l-0.1-0.137z" />
<glyph unicode="&#xe918;" horiz-adv-x="1254" d="M955.558 18.492c-6.873-7.642-9.933-4.582-12.224 0-0.769 2.291 0 5.351-0.769 8.396 3.756-2.291 7.584-5.351 12.992-8.396z" />
<glyph unicode="&#xe919;" horiz-adv-x="1254" d="M902.777 486.665c25.202-7.642 313.904-177.948 323.068-189.418 15.269 6.105 20.619 4.582 19.851-6.105-6.873 0-13.050-1.523-11.455-10.687-0.712-1.556-2.101-2.696-3.778-3.053l-0.035-0.006c-2.086 0.095-3.956 0.95-5.353 2.294l0.003-0.003c-0.808 1.312-1.352 2.869-1.519 4.537l-0.004 0.045c-64.15-36.657-127.603-74.082-190.941-110.739-68.732-39.716-136.709-79.433-205.455-118.381-12.793-7.451-28.157-11.849-44.548-11.849-17.439 0-33.715 4.978-47.485 13.591l0.377-0.22c-49.649 28.261-98.53 57.276-148.165 85.552-50.403 29.001-100.052 58.001-150.456 87.002l-242.881 139.769c-51.172 29.784-102.343 58.813-153.515 88.597-1.523 0.769-2.291 1.523-3.814 2.291-13.746 10.687-13.746 19.851 1.523 29.784 26.739 16.037 53.463 31.321 80.955 47.358l91.657 52.694c3.462 2.255 7.664 3.655 12.183 3.812l0.041 0.001c4.15-4.992 7.518-10.817 9.806-17.158l0.127-0.402c0-0.769-3.060-3.060-4.582-4.582-37.425-22.142-74.851-43.501-112.276-64.918-10.687-6.105-21.388-11.455-31.321-17.56-5.080-2.025-8.605-6.901-8.605-12.601s3.525-10.576 8.513-12.569l0.091-0.032c51.215-29.755 103.126-58.755 154.313-88.554 40.485-22.911 80.201-46.59 119.903-70.269 45.067-25.97 90.888-51.94 136.709-78.664 62.627-35.903 124.485-72.502 187.054-108.448 9.164-5.351 18.328-10.687 27.551-15.269 1.94-0.734 4.183-1.16 6.525-1.16s4.585 0.425 6.656 1.203l-0.131-0.043c63.41 36.657 126.748 73.343 190.897 109.971l187.881 107.694c5.351 3.060 10.687 6.873 8.396 13.746-1.481 5.004-4.428 9.191-8.339 12.182l-0.057 0.042c-61.341 35.809-113.72 71.633-163.4 110.733l3.012-2.285c-12.224 9.164-23.679 19.097-35.134 29.001-1.523 0.029-2.291 1.552-3.843 3.074zM892.844 133.045c5.351 2.291 9.164 3.814 12.224 5.351 11.455 6.105 22.911 13.050 33.612 19.851 33.612 19.097 66.441 38.194 100.052 58.001 9.933 6.105 12.224 12.224 7.642 19.097-4.582 7.642-12.224 8.396-21.388 3.060-24.433-13.746-48.881-27.551-73.314-42.051-21.388-12.224-42.051-25.202-63.396-37.425-3.901-1.815-6.557-5.701-6.557-10.207 0-1.846 0.446-3.588 1.236-5.125l-0.029 0.063c2.32-4.495 6.902-6.786 9.947-10.614z" />
<glyph unicode="&#xe91a;" horiz-adv-x="1254" d="M114.611 474.441c11.455 6.873 20.619 12.224 30.552 18.328 31.321 18.328 62.627 36.657 94.702 54.985 5.351 3.060 8.396 3.814 12.224-3.060 33.414-53.714 66.643-99.821 102.637-143.566l-1.816 2.275c40.878-48.447 82.303-92.293 126.039-133.725l0.738-0.693 4.582-4.582c-0.769-0.769-1.523-1.523-1.523-2.291-122.209 70.269-244.403 140.537-368.135 212.329z" />
<glyph unicode="&#xe91b;" horiz-adv-x="1254" d="M970.001 273.583c-22.911-13.050-42.776-25.202-63.396-36.657-24.433-13.746-48.881-28.261-73.314-42.051-1.974-1.508-4.476-2.417-7.19-2.417-3.507 0-6.659 1.516-8.838 3.929l-0.009 0.010c-25.202 22.142-19.851 47.358 10.687 66.441 15.614 9.25 33.884 15.951 53.369 18.986l0.863 0.111c8.965 1.5 19.295 2.358 29.825 2.358 15.983 0 31.505-1.975 46.334-5.695l-1.309 0.278c4.582-1.479 7.642-3.002 12.978-5.293z" />
<glyph unicode="&#xe91c;" horiz-adv-x="1254" d="M538.485 663.091c13.050 7.642 25.97 15.269 38.194 22.142 0.769 0 1.523 0 1.523-0.769 13.746-15.269 13.746-16.037-4.582-25.97-5.534-2.847-10.283-5.89-14.714-9.324l0.214 0.159c-1.414-1.51-3.421-2.452-5.647-2.452-3.478 0-6.419 2.297-7.389 5.456l-0.014 0.055c-3.048 3.030-5.588 6.566-7.484 10.473l-0.1 0.228z" />
<glyph unicode="&#xe91d;" horiz-adv-x="1254" d="M495.723 613.442c-4.582 6.105-7.642 11.455-12.224 17.56 13.050 7.642 25.202 14.5 38.948 22.911 3.863-4.181 7.176-8.953 9.772-14.146l0.16-0.354c0.066-0.344 0.104-0.739 0.104-1.143 0-2.004-0.93-3.791-2.382-4.952l-0.013-0.010c-11.455-6.931-22.911-12.992-34.366-19.865z" />
<glyph unicode="&#xe91e;" horiz-adv-x="1254" d="M440.738 581.367c-4.582 6.105-7.642 11.455-12.224 17.56 12.224 6.873 23.679 14.5 35.903 20.619 1.523 0.769 4.582-0.769 6.105-1.523 3.172-4.008 6.203-8.501 8.887-13.217l0.277-0.529c-12.978-7.627-25.202-14.5-38.948-22.911z" />
<glyph unicode="&#xe91f;" horiz-adv-x="1254" d="M385.738 550.061c-3.814 5.351-7.642 11.455-12.224 17.56l36.657 20.619c1.523 0.769 4.582-0.769 6.105-2.291 2.872-3.949 5.659-8.447 8.111-13.147l0.284-0.599c-13.732-7.627-25.956-14.5-38.933-22.142z" />
<glyph unicode="&#xe920;" horiz-adv-x="1254" d="M324.634 517.217c-3.814 5.351-7.642 11.455-12.224 17.56l36.657 20.619c1.523 0.769 4.582-0.769 6.105-2.291 2.872-3.949 5.659-8.447 8.111-13.147l0.284-0.599c-12.963-7.627-25.956-14.5-38.933-22.142z" />
<glyph unicode="&#xe921;" horiz-adv-x="1254" d="M593.485 695.166c11.455 6.873 22.142 13.050 32.843 19.097 1.248 1.119 2.906 1.803 4.724 1.803 3.119 0 5.768-2.014 6.717-4.812l0.015-0.050c2.291-3.814 4.582-6.873 6.873-11.455-13.746-7.642-25.97-15.269-38.948-22.911-4.582 6.105-8.41 12.224-12.224 18.328z" />
<glyph unicode="&#xe922;" horiz-adv-x="1254" d="M892.873 133.074c-3.060 3.060-8.396 6.105-9.933 9.933-0.76 1.473-1.206 3.215-1.206 5.062 0 4.506 2.656 8.392 6.488 10.178l0.069 0.029c21.388 12.224 42.051 25.202 63.396 37.425 24.433 13.746 48.881 27.551 73.314 42.051 9.164 5.351 16.806 4.582 21.388-3.060 4.582-6.873 2.291-13.050-7.642-19.097-32.843-19.097-66.441-38.948-100.052-58.001-11.455-6.873-22.142-13.050-33.612-19.851-4.608-0.984-8.691-2.598-12.405-4.775l0.195 0.106z" />
<glyph unicode="&#xe923;" horiz-adv-x="1254" d="M846.284-46.44l-13.746-7.642c5.404 2.581 9.907 5.126 14.225 7.933l-0.478-0.292z" />
<glyph unicode="&#xe924;" horiz-adv-x="1254" d="M1037.224 93.329l28.261 16.037c-6.873-3.814-13.746-7.642-20.619-12.224-2.921-0.865-5.465-2.169-7.702-3.857l0.061 0.044z" />
<glyph unicode="&#xe925;" horiz-adv-x="1254" d="M1015.068 50.567c19.851 11.455 39.716 22.911 58.813 34.366l-61.104-35.134c0.101-0.013 0.219-0.020 0.338-0.020 0.759 0 1.448 0.301 1.954 0.79l-0.001-0.001z" />
<glyph unicode="&#xe926;" horiz-adv-x="1254" d="M1079.232 87.224v0c-1.542-1.098-3.298-2.118-5.145-2.974l-0.205-0.085z" />
<glyph unicode="&#xe927;" horiz-adv-x="1254" d="M1064.717 109.366c5.351 3.060 11.455 6.873 16.806 9.933v0z" />
<glyph unicode="&#xe928;" horiz-adv-x="1254" d="M1252.598 252.949l-1.523 16.037c1.833 5.084 2.893 10.951 2.893 17.065 0 19.030-10.265 35.662-25.561 44.661l-0.243 0.132c-23.679 14.5-47.358 28.261-71.052 42.051-49.649 29.001-100.052 57.276-149.702 86.306-46.59 26.739-92.411 53.463-139 80.201-33.291 16.966-61.612 38.697-85.346 64.689l-0.206 0.229c-47.799 54.157-91.257 114.4-128.5 178.692l-2.873 5.375-33.568 64.875c-12.224 29.784-24.433 60.336-35.134 90.888-5.351 15.283-11.397 19.865-24.448 12.224-35.134-19.851-70.269-40.485-104.635-60.336-8.396-4.582-9.164-9.933-5.351-19.097 6.055-11.881 9.603-25.912 9.603-40.771 0-20.958-7.058-40.268-18.926-55.682l0.159 0.214c-13.048-19.938-35.275-32.927-60.536-32.927-3.968 0-7.862 0.321-11.656 0.937l0.415-0.056c-26.035 4.174-47.506 20.586-58.607 43.040l-0.206 0.461c-5.351 9.933-11.455 12.224-21.388 6.873-29.784-16.806-59.567-34.366-89.366-51.172-24.433-14.5-26.739-9.933-21.388-41.239 0.158-2.241 0.703-4.318 1.568-6.217l-0.046 0.113c9.933-25.202 19.851-50.403 29.784-74.851 1.523-4.582 1.523-6.873-3.060-9.164-11.455-6.105-22.142-12.224-33.612-19.097-47.358-27.551-94.702-54.985-141.291-81.724-17.757-8.61-29.783-26.499-29.783-47.197 0-0.857 0.021-1.71 0.061-2.557l-0.005 0.12c0.769-22.142 0-44.299 0-67.209-0.054-0.837-0.085-1.815-0.085-2.8 0-15.035 7.18-28.394 18.299-36.833l0.115-0.083c15.269-10.687 32.075-19.851 48.112-29.784l35.903-19.851c45.067-26.739 90.12-52.694 135.955-78.664 49.649-29.001 100.052-57.276 149.702-86.306 48.881-28.261 97.761-56.551 147.411-84.784 55.754-32.075 112.276-64.15 168.030-96.993 20.654-15.058 46.068-24.785 73.634-26.699l0.448-0.025c1.19-0.038 2.589-0.059 3.993-0.059 18.384 0 35.911 3.672 51.886 10.322l-0.894-0.33h0.769l13.746 7.642 19.851 11.455 1.523 0.769 18.328 10.687 7.642 4.582 180.254 103.866c1.542 1.098 3.298 2.118 5.145 2.974l0.205 0.085c45.067 25.97 89.366 51.94 134.418 77.91 11.833 6.358 21.925 14.258 30.475 23.594l0.077 0.085c13.688 18.299 6.061 41.979 7.584 63.352zM200.902 715.031c-0.769 2.291 2.291 6.105 4.582 7.642 25.97 15.269 51.94 29.784 77.896 45.067 6.105 3.814 8.396 0 11.455-3.814 13.624-20.102 34.61-34.335 59.005-38.861l0.563-0.087c7.119-1.819 15.292-2.863 23.708-2.863 38.368 0 71.67 21.695 88.306 53.486l0.261 0.548c10.145 17.753 16.127 39.017 16.127 61.679 0 1.675-0.033 3.342-0.097 5l0.007-0.239c-0.769 9.933-3.814 20.619-5.351 30.552-0.002 0.088-0.003 0.192-0.003 0.296 0 2.747 0.859 5.294 2.322 7.387l-0.028-0.042c25.97 15.269 52.694 30.552 80.201 46.59 24.706-74.266 56.537-138.71 95.83-197.762l-1.882 3.008c-1.523-2.291-3.814-4.582-5.351-6.873 1.975-4.073 4.267-7.584 6.938-10.766l-0.064 0.079c2.291-2.291 3.814-8.396 9.164-3.814 0.769 0.769 3.814-2.291 5.351-3.814 57.168-84.007 121.11-156.938 192.881-221.318l1.119-0.987c58.106-52.46 122.284-100.598 190.62-142.628l5.672-3.245c4.172-2.38 7.662-4.653 11.015-7.101l-0.328 0.228c-10.687-6.105-19.851-12.224-29.784-17.56-12.224-6.873-24.433-14.5-37.425-21.388-1.571-0.723-3.408-1.144-5.343-1.144s-3.773 0.421-5.425 1.177l0.081-0.033c-24.132 10.3-52.207 16.288-81.681 16.288-9.708 0-19.265-0.65-28.629-1.908l1.094 0.12c-28.44-2.843-54.175-12.428-76.214-27.121l0.61 0.382c-17.858-10.815-30.396-28.882-33.564-50.015l-0.048-0.388c-0.129-1.47-0.202-3.181-0.202-4.909 0-15.851 6.182-30.258 16.267-40.941l-0.027 0.029c2.905-2.857 5.649-5.845 8.237-8.967l0.159-0.197c-11.455-6.873-21.388-13.050-32.075-19.097-16.037-9.164-31.321-18.328-47.358-26.739-1.327-0.721-2.905-1.145-4.582-1.145s-3.256 0.424-4.634 1.17l0.051-0.025c-40.485 26.739-81.724 51.94-119.903 80.201-85.34 64.238-159.613 136.090-224.219 216.074l-1.855 2.374c-10.687 13.050-20.619 25.97-30.552 39.716l-23.679 34.366-16.037 22.911-13.050 18.328c-25.643 38.907-49.456 83.615-69.042 130.528l-2.009 5.427c-3.727 12.209-6.018 23.679-9.077 35.134zM970.001 273.583c-22.911-13.050-42.776-25.202-63.396-36.657-24.433-13.746-48.881-28.261-73.314-42.051-1.974-1.508-4.476-2.417-7.19-2.417-3.507 0-6.659 1.516-8.838 3.929l-0.009 0.010c-25.202 22.142-19.851 47.358 10.687 66.441 15.614 9.25 33.884 15.951 53.369 18.986l0.863 0.111c9.011 1.516 19.393 2.382 29.977 2.382 15.955 0 31.449-1.968 46.255-5.675l-1.308 0.277c4.51-1.523 7.569-3.060 12.92-5.351zM352.895 403.419c40.878-48.447 82.303-92.293 126.039-133.725l0.738-0.693 4.582-4.582c-0.769-0.769-1.523-1.523-1.523-2.291-122.194 70.269-243.606 140.537-368.135 212.329 11.455 6.873 20.619 12.224 30.552 18.328 31.321 18.328 62.627 36.657 94.702 54.985 5.351 3.060 8.396 3.814 12.224-3.060 32.956-53.593 66.2-99.717 102.424-143.274l-1.603 1.983zM1210.59 193.381c-42.776-24.433-85.552-48.881-128.314-74.082-5.351-3.060-11.455-6.873-16.806-9.933l-28.261-16.037-154.269-88.539-7.642-4.582c-14.5-8.396-29.001-17.56-43.501-25.202l-4.582-2.291c-12.594-6.998-27.62-11.117-43.608-11.117-18.108 0-34.982 5.284-49.165 14.394l0.362-0.218c-16.806 9.933-33.612 19.851-50.403 29.001l-160.432 91.613c-51.94 29.784-103.112 59.567-155.038 89.366-52.752 30.538-106.157 61.090-158.866 91.642-27.551 16.037-54.985 32.075-83.246 48.112v0l-2.291 1.523c-4.582 2.291-9.164 5.351-13.746 7.642v0l-25.202 14.5c-1.523 0.769-2.291 1.523-3.814 2.291l-1.523 0.769c-11.455 6.873-24.433 13.746-36.657 21.388-6.873 4.582-15.269 10.687-16.037 17.56-0.832 7.944-1.306 17.162-1.306 26.491 0 5.985 0.195 11.924 0.58 17.811l-0.042-0.801c14.5-8.396 25.97-14.5 38.194-21.388 45.067-25.97 90.12-52.694 135.187-78.664 62.627-35.903 125.254-72.502 188.65-108.448 54.971-31.277 109.202-63.338 163.419-94.658 57.276-32.843 113.799-65.687 171.104-98.53 16.795-10.085 37.060-16.050 58.718-16.050 14.863 0 29.070 2.809 42.118 7.925l-0.784-0.271c18.826 7.638 34.901 16.071 50.027 25.846l-1.161-0.703 158.054 91.657c52.694 30.552 104.635 60.336 157.329 90.888 11.455 6.873 23.679 13.050 38.194 20.619 0-13.050-0.769-22.911 0-32.843 0.152-1.039 0.239-2.239 0.239-3.459 0-10.401-6.312-19.328-15.314-23.159l-0.165-0.062zM1223.641 283.501c-64.15-36.657-127.603-74.082-190.941-110.739-68.732-39.716-136.709-79.433-205.455-118.381-12.793-7.451-28.157-11.849-44.548-11.849-17.439 0-33.715 4.978-47.485 13.591l0.377-0.22c-49.649 28.261-98.53 57.276-148.165 85.552-50.403 29.001-100.052 58.001-150.456 87.002l-242.881 139.769c-51.172 29.784-102.343 58.813-153.515 88.597-1.523 0.769-2.291 1.523-3.814 2.291-13.746 11.455-13.746 20.619 1.523 30.552 26.739 16.037 53.463 31.321 80.955 47.358l91.657 52.694c3.462 2.255 7.664 3.655 12.183 3.812l0.041 0.001c4.15-4.992 7.518-10.817 9.806-17.158l0.127-0.402c0-0.769-3.060-3.060-4.582-4.582-37.425-22.142-74.851-43.501-112.276-64.918-10.687-6.105-21.388-11.455-31.321-17.56-5.080-2.025-8.605-6.901-8.605-12.601s3.525-10.576 8.513-12.569l0.091-0.032c51.172-29.784 103.112-58.813 154.284-88.597 40.485-22.911 80.201-46.59 119.903-70.269 45.067-25.97 90.888-51.94 136.709-78.664 62.627-35.903 124.485-72.502 187.054-108.448 9.164-5.351 18.328-10.687 27.551-15.269 1.94-0.734 4.183-1.16 6.525-1.16s4.585 0.425 6.656 1.203l-0.131-0.043c63.396 36.657 126.777 73.314 190.941 109.985l187.736 107.709c5.351 3.060 10.687 6.873 8.396 13.746-1.481 5.004-4.428 9.191-8.339 12.182l-0.057 0.042c-61.321 35.813-113.686 71.642-163.352 110.745l3.007-2.283c-12.224 9.164-23.679 19.097-35.134 29.001-1.523 0.769-2.291 2.291-3.814 3.814 25.202-7.642 313.904-177.948 323.068-189.418l6.105-7.642z" />
<glyph unicode="&#xe929;" glyph-name="path12" d="M7.16 363.108c12.121-71.161 37.375-134.673 73.314-190.675l-1.216 2.025c132.117 36.796 248.295 106.403 289.574 261.494 11.508 36.663 18.138 78.822 18.138 122.53 0 128.758-57.538 244.078-148.304 321.65l-0.582 0.485c-144.106-92.257-238.255-251.514-238.255-432.761 0-29.98 2.576-59.358 7.518-87.925l-0.437 3.051zM1016.591 532.643c4.523-25.559 7.109-54.986 7.109-85.016 0-282.718-229.188-511.907-511.907-511.907-169.908 0-320.483 82.778-413.595 210.205l-1.010 1.449 828.875 237.649c11.892 3.424 8.841 14.88-0.996 14.195l-347.539-24.282c50.388 42.738 82.155 106.098 82.155 176.878 0 3.001-0.057 5.989-0.17 8.963l0.013-0.429c-9.152 129.876-141.332 256.576-387.074 339.881 69.452 37.577 152.038 59.664 239.782 59.664 252.679 0 462.578-183.161 504.17-423.957l0.435-3.045z" />
<glyph unicode="&#xe92a;" d="M521.061 745.769h83.801c104.932 0 189.996-85.064 189.996-189.996s-85.064-189.996-189.996-189.996h-83.801c-104.932 0-189.996 85.064-189.996 189.996s85.064 189.996 189.996 189.996z" />
<glyph unicode="&#xe92b;" d="M521.061 737.325h83.801c100.268 0 181.551-81.283 181.551-181.551s-81.283-181.551-181.551-181.551h-83.801c-100.268 0-181.551 81.283-181.551 181.551s81.283 181.551 181.551 181.551z" />
<glyph unicode="&#xe92c;" glyph-name="tursab" horiz-adv-x="3861" d="M904.565 554.968c27.341 0 49.506 22.165 49.506 49.506s-22.165 49.506-49.506 49.506c-27.341 0-49.506-22.165-49.506-49.506v0c-0.001-0.084-0.001-0.183-0.001-0.283 0-27.186 22.038-49.224 49.224-49.224 0.099 0 0.199 0 0.298 0.001h-0.015zM904.565 389.571c27.341 0 49.506 22.165 49.506 49.506s-22.165 49.506-49.506 49.506c-27.341 0-49.506-22.165-49.506-49.506v0c-0.001-0.084-0.001-0.183-0.001-0.283 0-27.186 22.038-49.224 49.224-49.224 0.099 0 0.199 0 0.298 0.001h-0.015zM3583.456 659.579c263.281-1.128 312.787-266.624 144.007-338.648 185.658-69.768 182.275-343.28-97.884-363.421l-378.043-1.128v703.197zM3487.787 489.671v-101.268l34.884-1.128c39.395 2.256 67.512 15.75 68.479 55.146 1.128 34.884-25.861 50.634-79.879 47.25h-23.645zM3487.787 241.013v-118.146l42.739-2.256c48.338 2.256 82.134 18.006 84.39 65.256 1.128 40.523-31.5 59.617-97.884 55.146zM2462.74-43.617l268.88 1.128 23.645 87.774 190.25-1.128 25.861-87.774h267.752l-250.914 703.197h-281.287l-244.067-703.197zM2795.91 209.553l49.506 216.031h8.983l47.25-213.775-105.78-2.256zM2393.012 421.394l0.512-0.39c-41.468 32.773-93.857 52.336-150.815 52.336-3.325 0-6.634-0.067-9.454-0.184-47.13-14.622-56.233-34.884-26.989-61.873 194.681-45.156 304.932-100.301 277.943-257.803-31.5-235.164-321.81-268.719-571.556-151.902l79.879 193.352-0.633 0.497c45.078-36.517 99.728-61.681 161.518-71.393 85.518-1.128 103.524 64.128 39.395 77.623-146.263 12.407-239.636 66.384-255.386 184.53 6.767 280.159 330.793 331.921 525.434 213.775l-69.768-178.891zM1284.985 659.579l345.335-1.128c142.879-14.622 243.019-76.495 254.258-211.519 14.703-126.041-38.227-191.298-138.367-216.031l0.605-0.376c14.185-9.388 26.813-20.939 37.663-34.508l159.838-239.636h-293.653l-115.89 225.013-1.128-225.013-247.531-1.128-1.128 704.325zM1533.644 463.811l1.128-119.274c74.239-4.512 104.732 16.878 101.268 63.001 2.256 50.634-38.268 57.361-102.396 56.394zM581.667 659.579h250.914l1.128-443.098c6.559-32.69 35.036-56.97 69.184-56.97s62.625 24.281 69.108 56.519l0.076 0.451 3.384 441.044 252.042-1.128v-459.211c0-345.415-643.54-344.287-645.796 8.983v453.41zM0 659.579h535.746v-225.013h-138.569v-478.184h-258.81v478.184h-138.367v225.013zM1291.631 910.494h2569.728v-157.501h-2569.728v157.501zM0 910.494h511.94v-157.501h-511.94v157.501zM0 910.494h3861.359v-157.501h-3861.359v157.501zM-4.512 916.899h3882.991v-173.574h-3882.991v173.574zM597.458 915.005l3.384 1.128 2.256 1.128 1.128 3.384v8.056l4.512 1.128 1.088 1.974h1.128l2.135 1.208 1.128 2.256-1.128 4.592v3.263h-2.256l-1.007 2.256-8.056 4.512v3.343l1.289 1.128 2.256-1.128 3.384-3.384h1.128l2.256 1.128 2.256 3.384v1.128l1.128 2.256h4.512l2.256-2.256 3.343-1.128 5.639 2.256v3.384l2.256-1.128 4.512-1.128 2.256 1.128 2.256-2.256 5.639-2.256 5.639-3.384 5.639 2.256-1.208 1.128h2.256l5.639 1.128v-1.128l1.128-3.384h-1.128l-2.256-4.471v-4.512l1.128-2.135 2.256-2.256 1.128-2.256h4.512l2.256-2.256 5.639-3.384 4.512-1.128 11.279-4.512-1.208-2.336-3.384-6.767-1.128-1.128h-4.512l-4.512 1.128-8.056 2.256-5.639 2.256-9.023-4.512-1.128 1.128-2.256 1.128h-4.512l-4.512-1.128-3.384-1.128-2.256-2.256-2.256-1.128-1.128-4.512-4.512-1.128-4.512-2.256-6.767-1.128-4.512-2.256-4.512-3.384-5.639-4.512-4.512-4.512-2.256-1.128v2.336l1.128 1.128-0.564 2.256 1.128 1.128 20.302 10.151v2.215h-4.512l-9.023-2.256h-8.983l-3.384 1.128-1.128 1.128-1.128 4.512 1.128 2.256v2.256zM1110.485 925.116l-2.256-2.256-2.256-1.128-4.512-1.128-3.384-4.512-3.384-2.256-11.239-2.256-5.639-4.512-3.384 2.256-2.135-3.343-4.512-2.256h-5.639l-2.256 1.128-4.512-2.256v1.007l-4.512 1.128-5.639 1.128-1.128 2.377-4.512 2.256-5.639-1.128-2.256-1.128h-8.943l-2.256-2.256-6.767-2.256-2.256 1.128-3.384-2.256h-8.056l-3.182 1.007-4.512 1.128-4.632 3.505-2.256 2.256h-2.256l-3.223 1.168-4.512-5.639-1.128 2.256h-2.256l-4.512 1.088-4.512 1.128-2.215 1.168-4.512 3.384-1.128 4.512h-10.111l-1.128-4.512-4.512-1.128-3.384 2.256-4.471 4.431-1.128 2.256-1.128 3.384 1.128 1.128-1.128 5.639h-3.384l-6.727-1.208-4.512-2.256-4.512 2.256-3.343 1.208-5.639 4.512-1.128 1.088-1.007 4.512 2.256 1.128-2.256 1.128-3.505 1.128-3.343 2.256h-1.208l-1.128-2.256-5.639-2.256-5.639 1.128-4.512-1.128-5.639 1.128-4.512-1.128-11.118 1.128-13.494 3.384-2.256-1.128-4.512-1.128-3.384-2.256h-10.111l-4.592-2.256-8.056-1.128-4.028-2.256-2.256-1.128-3.384-2.256-5.801-3.424-2.256-5.639-6.767-1.128-8.056-4.512h-1.128v-3.384l-3.384-2.256-4.512-2.256-5.639-1.128-8.983 2.256-10.111 2.256-4.512 3.384-5.639-3.384h-8.983l-1.128 1.128h-2.054l-4.512 2.256-5.599 2.336h-5.639l-2.256-1.128-1.128-3.384-3.384-2.256v-1.128h2.377l4.512-2.256 3.384-4.512 1.128-3.384h2.256l4.512 1.128h8.056l2.256-1.128v-1.128l-2.256-1.128h-8.983l-2.779 1.208-2.256-2.256-5.639 1.128h-4.189l-3.384-1.128-2.256-1.128 1.128-2.256v-2.256h4.512l-4.512-1.128-1.128-2.256-2.256-1.128-2.336 1.289h-5.639l-2.256 2.256h-11.239l-1.128 1.128-3.384 1.128h-2.377l-3.384 3.384h-6.767v-4.673l2.256-1.128v-1.128l-3.384-1.128-2.256 1.128-2.256-1.128-2.256 1.128-4.512 1.128v4.512h-4.512l-1.128-2.256h-12.084l-1.128-1.128-5.639-3.384-4.512-2.256-3.384-2.256-2.256-2.256v-1.128h-8.056l-1.128-2.256-1.128-1.128v-11.239l-1.128-4.512 2.256-3.384 2.256 1.128h5.639l4.512 2.256h2.256l-2.256-2.256 4.512-4.512v-3.384l1.128-3.384v-2.256h2.256l1.128-2.256-1.128-1.128 1.128-3.384 3.384 2.256 1.128-4.512-4.512-1.128-1.128-1.128h-2.256l-1.128-1.128 4.512-4.512-2.256-6.767 2.256-1.128v-1.128l1.128-2.256 3.384 2.256 1.128-2.256-2.256-1.128h-4.512l-4.512-2.256v3.545l-2.256-1.128v-2.256h-2.256l-1.128 2.256 1.128 2.256-2.256 2.256v4.471l-2.256 2.256h-3.223v-8.056l3.384 1.128 1.128-2.256-2.256-2.256-2.256-3.384 2.256-4.512 2.256-1.128 1.128-2.256 2.256 5.639h4.512v-2.256l1.128-2.256 2.256-2.256 1.128 3.384 3.384-1.128 2.256-3.384 2.256-2.256v-12.165l-2.256-1.128h-4.512v-1.128l3.384-2.256v-3.384l1.128-1.128v-3.464h4.512l3.384 1.128v-1.128h2.256l-2.256-1.128 2.256-1.128v-1.128h2.256l-1.128-3.384v-3.384l-2.256-2.256v-1.128l2.256-2.256 4.512 1.128h16.878l4.512 1.128v-2.256l-2.256-3.384h-1.128l-1.128-2.256 1.128-2.256-3.384-1.128v-8.056l3.384-1.128v1.49l2.256 1.128 2.256 3.384v1.128h8.056l4.512 4.512 2.256-1.128-2.256-5.639h3.384l2.256-5.639 1.128 1.128-1.128 2.256 5.639 3.384 2.256-3.384 1.128-1.128-1.128-1.128v-2.256l1.128-1.128v-6.767l1.128-2.256 8.056-2.256v-2.256l4.512-2.256v-1.128h3.384l1.128 2.256 2.256-1.128 4.512 1.128 3.384 1.128h2.779l1.128 2.256h2.256l3.384-3.384v-3.384l2.256-1.128 1.128 2.256v3.424l1.128 1.128v1.047l-1.128 2.256 1.128 2.256 2.256 1.128v8.056l1.128 2.256v2.135l2.256 1.128 2.256-1.128h2.256l5.639 1.128 4.512-1.128 3.384-2.256 2.256-1.128h2.256l1.128-2.256h4.512l1.128-2.256 2.256-3.384 8.983-2.256 1.128-2.256h5.639l4.23-2.296v-4.431h3.384l1.128-5.639 2.256 1.128 4.512-2.256h2.256l1.128 1.128h2.256l1.128-2.256h5.639l4.512 2.256 2.256-1.128 3.384 1.128 1.128-2.256 4.512 1.128 2.256 1.128h4.512l1.128 1.128v2.256h2.256l1.128-1.128 3.384 3.384 1.128 2.256 1.128 1.128 2.256 1.128 1.128 2.256 3.384 1.128 1.128 1.128 1.128 3.384 5.639 1.128 1.128 1.128h2.256l4.512-2.256 1.128-2.256h3.384l4.512-2.256 5.639-2.256v1.128l-4.512 2.256 1.128 1.128 4.512-2.256v-2.256h2.256l4.512 1.128h3.223v2.256l1.128 1.128-1.128 2.336 1.128 1.128 4.512-1.128 1.128 2.256 3.384 1.128 4.512 2.256 4.512-4.512v-5.639l-3.384-2.256h-1.128l-1.128-2.256-2.256-1.128-2.256-3.384 15.75-1.128-2.256-1.128 2.256-4.512 3.384-3.384v-1.128l-3.384-5.639h4.512l1.128-3.384 4.512 2.256 2.256 2.256 4.512 1.128 1.128 2.256v6.727l8.056 1.128 1.128 2.256v2.215l1.128 3.384v12.366l2.256 1.128 4.512-4.512 8.983 3.384v-5.639l4.512-1.128h2.256l8.056-2.256 4.512 2.256 4.512 4.512 6.767 4.512 8.056 1.128 10.111-2.256 2.256-1.128 20.141-4.512 8.983 1.128 14.622 4.512 6.767 1.128 8.056 2.256 19.134 5.639 13.494-3.384h4.512l11.239 3.384 13.494 6.767 3.867 1.088 2.256-8.056 8.983 1.128v4.673l4.512 1.128 5.639 4.512 4.471-3.384 5.639 2.256 4.512-4.512 3.384 1.128 10.111-1.128 4.512-1.128 3.384 4.512 10.111-2.256-1.128-4.512 4.512-5.639 4.512 4.512 4.512 2.256h4.512l1.128-5.639 4.512-1.128v1.168l1.128 5.639-4.512 1.128 1.128 5.639-1.128 1.128-4.632 1.088-1.128 4.512 2.256 5.639-2.256 2.256-3.384-1.128h-1.128l-1.047 4.35-5.639 2.256 2.256 12.366 4.512 1.128 1.128 5.639h-5.639l-2.256 10.111-3.384 5.639 1.128 2.256-2.256 1.128-1.128 8.056 1.128 1.128-2.256 2.256-2.256 5.639 6.767 2.256 5.639-2.256 1.128 8.056 1.128 5.639 5.639 2.256v6.445l-1.128 2.256-5.639 5.639h-10.111l-4.512-1.128-11.239 1.128-3.384 3.384 2.256 1.128-2.256 8.056-2.256 2.256v5.639l-0.967 0.886 5.639 2.256 1.128 2.256-5.639 11.239-2.256 2.256-1.128 4.512-10.111 2.256v8.056l-8.056 2.256v5.438h-10.111l-1.128-2.256v-2.256h-10.111l-9.023 1.128-5.599-1.128-2.256 2.256h-8.056v-1.128z" />
<glyph unicode="&#xe92d;" horiz-adv-x="1170" d="M1157.027 183.545l-219.435 182.848c-6.283 5.267-14.456 8.467-23.375 8.467-20.159 0-36.5-16.342-36.5-36.5 0-0.027 0-0.054 0-0.081v0.004-109.717h-73.152l-416.9 555.896c-13.385 17.839-34.489 29.257-58.259 29.257-0.089 0-0.179 0-0.268 0h-292.573c-0.013 0-0.028 0-0.043 0-20.171 0-36.522-16.351-36.522-36.522 0-0.015 0-0.030 0-0.046v0.002-73.152c0.11-20.15 16.415-36.455 36.555-36.565h256.011l416.922-555.896c13.385-17.839 34.489-29.257 58.259-29.257 0.089 0 0.179 0 0.268 0h109.703v-109.717c0-0.032 0-0.070 0-0.108 0-20.135 16.322-36.457 36.457-36.457 0.038 0 0.076 0 0.114 0h-0.006c0.113-0.001 0.247-0.002 0.381-0.002 8.774 0 16.8 3.2 22.976 8.497l-0.047-0.040 219.435 182.848c8.121 6.732 13.255 16.822 13.255 28.11s-5.134 21.379-13.194 28.062l-0.060 0.049z" />
<glyph unicode="&#xe92e;" horiz-adv-x="1170" d="M1157.027 768.697l-219.435 182.848c-6.287 5.278-14.467 8.485-23.397 8.485-20.159 0-36.5-16.342-36.5-36.5 0-0.033 0-0.067 0-0.1v0.005-109.717h-109.717c-0.072 0-0.158 0-0.243 0-23.773 0-44.88-11.418-58.135-29.070l-0.135-0.187-115.188-153.591 91.424-121.827 118.929 158.392h73.152v-109.674c0-0.014 0-0.032 0-0.049 0-20.171 16.351-36.522 36.522-36.522 8.918 0 17.090 3.197 23.432 8.507l-0.057-0.047 219.435 182.848c8.121 6.732 13.255 16.822 13.255 28.11s-5.134 21.379-13.194 28.062l-0.060 0.049z" />
<glyph unicode="&#xe92f;" horiz-adv-x="1170" d="M411.429 386.979l-118.929-158.392h-255.935c-20.158-0.11-36.468-16.427-36.565-36.578v-73.161c0.11-20.15 16.415-36.455 36.555-36.565h292.576c0.076 0 0.165 0 0.254 0 23.77 0 44.873 11.418 58.124 29.069l0.135 0.188 115.21 153.526z" />
<glyph unicode="&#xe930;" glyph-name="asistant" horiz-adv-x="920" d="M729.204 232.602l-95.005 31.559-34.201 68.435c30.103 30.684 51.214 70.289 59.004 114.488l0.191 1.31 4.201 25.602h36.597c33.096 0.102 59.897 26.904 60 59.99v126.016c0 165.685-134.314 299.999-299.999 299.999s-299.999-134.314-299.999-299.999v0-126.006c0.066-25.954 16.53-48.046 39.576-56.469l0.419-0.134v-23.403c0.102-33.096 26.904-59.897 59.99-60h17.603c9.203-19.898 20.441-37.029 33.803-52.25l-0.209 0.242c2.806-3.2 5.793-6.4 8.796-9.404l-34.201-68.205-95.005-31.592c-110.563-36.975-190.765-153.38-190.765-276.777 0-0.005 0-0.011 0-0.016 0-11.059 8.951-20.027 20.003-20.055h879.994c11.037 0.028 19.977 8.968 20.005 20.003v0.003c0 123.462-80.202 239.868-190.798 276.662zM719.997 533.995c-0.028-11.037-8.968-19.977-20.003-20.005h-30.594c4.923 39.387 8.403 81.203 9.847 122.592-0.007 0.201-0.012 0.436-0.012 0.673 0 0.961 0.070 1.906 0.205 2.829l-0.013-0.105h40.602zM219.994 514.006c-11.037 0.028-19.977 8.968-20.005 20.003v105.971h40.602c0-2.002 0.197-4.201 0.197-6.203v-0.197c1.395-40.208 4.792-81.006 9.847-119.392l-30.607-0.197zM259.988 434.001c-11.037 0.028-19.977 8.968-20.005 20.003v19.992h16.411l4.201-25.602q1.198-7.205 3.003-14.393zM239.983 680.007h-39.19c10.713 134.706 122.665 239.96 259.2 239.96s248.487-105.255 259.142-239.050l0.058-0.91h-39.19c-1.451 110.57-91.272 199.683-201.977 199.988h-35.823c-110.809-0.222-200.724-89.36-202.202-199.848l-0.001-0.14zM442.203 840.001h35.793c89.547-0.243 162.046-72.891 162.046-162.471 0-0.116 0-0.231 0-0.347v0.018c0-6.203 0-11.8-0.197-16.805v-0.197l-24.994 3.594c-71.083 10.59-133.155 43.133-180.531 90.4l0.006-0.006c-3.581 3.58-8.528 5.794-13.992 5.794-0.072 0-0.143 0-0.214-0.001h0.011c-55.969-0.069-105.971-25.559-139.090-65.541l-0.242-0.301c8.837 82.156 77.671 145.6 161.378 145.864h0.027zM305.004 434.001c-12.642 57.073-21.245 123.775-23.925 191.999l-0.069 2.197 26.997 35.793c24.313 31.987 61.443 53.147 103.595 55.778l0.403 0.020c52.392-49.756 119.897-84.061 194.94-95.349l1.996-0.247 29.393-4.201c-2.002-41.8-6.007-83.599-11.8-122.199v0c-1.805-12.407-3.2-20.399-7.008-42.669-10.643-65.637-57.695-118.034-119.406-136.287l-1.2-0.305c-11.793-3.169-25.333-4.99-39.298-4.99-58.696 0-109.88 32.158-136.897 79.816l-0.407 0.78h40.799c8.512-23.497 30.63-39.985 56.601-39.994h39.996c33.137 0 60 26.863 60 60s-26.863 60-60 60h-39.912c-0.004 0-0.008 0-0.013 0-25.972 0-48.092-16.493-56.457-39.576l-0.132-0.418h-58.194zM418.406 277.995c12.471-2.716 26.826-4.313 41.539-4.398h0.064c11.644 0.073 23.007 1.013 34.103 2.759l-1.281-0.166-35.399-37.401zM429.812 209.79l-63.397-67.007c-15.336 28.632-30.442 62.905-43.059 98.359l-1.694 5.459 23.796 47.593zM571.212 300.987l27.194-54.403c-14.33-40.904-29.451-75.171-46.851-108.046l2.049 4.244-67.828 67.828zM399.993 413.996c0.028 11.037 8.968 19.977 20.003 20.005h39.997c0.171 0.005 0.371 0.008 0.573 0.008 11.049 0 20.005-8.957 20.005-20.005s-8.957-20.005-20.005-20.005c-0.201 0-0.402 0.003-0.602 0.009l0.029-0.001h-39.994c-11.032 0.028-19.968 8.959-20.005 19.985v0.004zM40.798-23.989c7.992 98.993 73.851 189.206 162.603 218.796l84.206 27.998c17.473-47.889 36.686-88.579 59.066-127.206l-2.036 3.809c0-0.109 0.088-0.197 0.197-0.197v0 0c18.432-32.239 36.547-59.542 56.238-85.588l-1.441 1.989 24.404-39.6zM459.993-6.183l-27.194 43.605c-0.394 0.394-0.607 1.001-1.001 1.395-14.698 19.302-29.555 41.301-43.183 64.119l-1.817 3.283 71.406 75.394 75.164-75.213c-15.682-26.278-30.601-48.336-46.597-69.536l1.4 1.937c-0.968-1.395 0.427 0.804-28.178-45zM495.999-23.989l24.617 39.387c18.218 24.146 36.465 51.643 53.066 80.214l2.141 3.992c0 0.197 0.197 0.394 0.197 0.607v0c20.045 34.483 39.048 74.842 54.613 116.869l1.792 5.527 84.206-27.998c88.802-29.54 154.595-119.606 162.603-218.796l-383.204 0.197z" />
<glyph unicode="&#xe931;" glyph-name="sub-branch" horiz-adv-x="1996" d="M142.923 674.792c0-118.107 95.745-213.853 213.853-213.853v0h1395.899l-281.587 281.587 100.856 100.856 402.784-403.317c12.922-12.898 20.916-30.729 20.916-50.428s-7.994-37.53-20.915-50.427l-0.001-0.001-402.784-403.21-100.856 100.856 281.587 281.48h-1396.218c-196.768 0.242-356.214 159.689-356.456 356.433v285.231h142.923z" />
<glyph unicode="&#xe932;" glyph-name="exchange" horiz-adv-x="2023" d="M2004.723 594.527c11.55 11.538 18.695 27.484 18.695 45.099s-7.145 33.561-18.694 45.098l-256.543 256.543c-11.701 12.665-28.395 20.569-46.934 20.569-35.253 0-63.832-28.579-63.832-63.832 0-18.54 7.904-35.233 20.526-46.895l0.043-0.039 141.887-141.887h-1726.672c-0.702 0.028-1.525 0.043-2.352 0.043-35.253 0-63.832-28.579-63.832-63.832s28.579-63.832 63.832-63.832c0.827 0 1.651 0.016 2.471 0.047l-0.118-0.004h1913.831c2.707 0.119 5.184 1.010 7.242 2.457l-0.043-0.029zM18.733 301.299c-11.55-11.538-18.695-27.484-18.695-45.099s7.145-33.561 18.694-45.098l256.543-256.543c11.542-11.542 27.487-18.68 45.099-18.68 35.224 0 63.779 28.555 63.779 63.779 0 17.612-7.139 33.557-18.68 45.099l-141.887 141.887h1726.845c34.227 1.302 61.479 29.362 61.479 63.789s-27.253 62.487-61.361 63.785l-0.118 0.004h-1914.005c-2.707-0.119-5.184-1.010-7.242-2.457l0.043 0.029z" />
<glyph unicode="&#xe933;" glyph-name="notification-bell" horiz-adv-x="840" d="M420.103-64c57.932 0.179 104.847 47.094 105.026 105.009v0.017h-210.051c0-58.004 47.022-105.026 105.026-105.026v0zM735.179 251.077v262.564c0 161.214-86.121 296.172-236.308 331.881v35.709c0 43.503-35.266 78.769-78.769 78.769s-78.769-35.266-78.769-78.769v0-35.709c-150.712-35.709-236.308-170.667-236.308-331.881v-262.564l-105.026-105.026v-52.513h840.205v52.513z" />
<glyph unicode="&#xe934;" glyph-name="logo" horiz-adv-x="4684" d="M2218.067 204.653c3.551-0.231 7.698-0.363 11.877-0.363 28.271 0 55.132 6.039 79.363 16.897l-1.231-0.493c17.571 9.254 29.347 27.391 29.347 48.279 0 1.005-0.027 2.004-0.081 2.996l0.006-0.138c0.014 0.523 0.023 1.139 0.023 1.757 0 22.943-11.373 43.23-28.788 55.531l-0.213 0.143c-27.29 18.403-58.572 34.563-91.702 46.93l-3.108 1.017q-32.198 12.762-61.265 26.11c-19.341 8.651-36.010 19.177-50.94 31.707l0.33-0.269c-14.006 11.962-25.437 26.48-33.656 42.886l-0.357 0.787c-8.096 18.171-12.811 39.373-12.811 61.677 0 47.070 20.998 89.235 54.138 117.64l0.209 0.175c37.511 27.196 84.459 43.503 135.215 43.503 4.527 0 9.023-0.13 13.486-0.386l-0.618 0.028c16.515-0.012 32.79-0.979 48.79-2.85l-1.955 0.186q23.417-2.664 43.673-6.381t35.682-8.020q15.426-4.244 24.061-7.464l-18.119-85.238c-14.262 6.963-30.944 12.988-48.331 17.209l-1.723 0.354c-22.811 5.782-48.998 9.101-75.96 9.101-2.11 0-4.215-0.020-6.315-0.061l0.314 0.005c-1.064 0.027-2.318 0.042-3.575 0.042-25.137 0-48.844-6.119-69.714-16.949l0.843 0.398c-18.454-9.053-30.934-27.705-30.934-49.272 0-0.841 0.019-1.678 0.057-2.51l-0.004 0.118c-0.013-0.511-0.021-1.112-0.021-1.715 0-11.086 2.568-21.573 7.142-30.897l-0.183 0.414c5.31-10.039 12.515-18.404 21.204-24.889l0.193-0.138c10.326-7.859 22.061-14.813 34.566-20.342l1.116-0.44q21.397-9.572 51.137-20.256 39.37-14.928 70.251-29.271c20.144-9.243 37.495-20.475 52.976-33.816l-0.287 0.242c14.255-12.556 25.631-28.023 33.251-45.504l0.323-0.833c7.452-18.31 11.777-39.554 11.777-61.807 0-1.683-0.025-3.36-0.074-5.031l0.006 0.245c0.128-2.18 0.202-4.729 0.202-7.295 0-44.959-22.454-84.673-56.76-108.54l-0.433-0.285c-41.46-25.086-91.548-39.931-145.103-39.931-6.105 0-12.165 0.193-18.174 0.573l0.822-0.042c-3.893-0.128-8.47-0.201-13.064-0.201-36.187 0-71.316 4.536-104.847 13.070l2.932-0.633c-23.345 6.452-42.138 12.844-60.478 20.13l3.984-1.396 18.119 85.209q17.007-6.381 54.328-19.143c26.43-8.088 56.809-12.745 88.275-12.745 3.801 0 7.586 0.068 11.354 0.203l-0.546-0.015zM2485.46 409.172c-0.047 2.151-0.074 4.686-0.074 7.227 0 43.475 7.873 85.111 22.27 123.56l-0.798-2.432c13.318 35.337 32.484 65.636 56.591 91.229l-0.127-0.136c22.284 23.137 49.276 41.569 79.453 53.777l1.541 0.551c27.727 11.42 59.914 18.071 93.649 18.119h0.020c3.997 0.267 8.664 0.419 13.366 0.419 62.648 0 118.986-27.012 158.005-70.024l0.159-0.178q59.626-69.783 59.626-212.539v-16.509c0.001-0.209 0.002-0.457 0.002-0.705 0-6.354-0.394-12.616-1.159-18.763l0.075 0.734h-379.181c0.637-50.341 19.49-96.16 50.255-131.282l-0.201 0.234c32.056-28.195 74.375-45.4 120.713-45.4 5.524 0 10.991 0.245 16.39 0.723l-0.698-0.050c2.038-0.041 4.441-0.065 6.849-0.065 28.708 0 56.639 3.33 83.426 9.626l-2.461-0.487c20.734 4.824 38.684 10.854 55.841 18.358l-2.041-0.796 13.816-83.101c-18.16-8.405-39.364-15.4-61.466-19.929l-1.907-0.326c-29.377-6.809-63.111-10.712-97.755-10.712-1.774 0-3.545 0.010-5.314 0.031l0.269-0.002c-2.251-0.056-4.903-0.088-7.562-0.088-42.3 0-82.72 8.047-119.814 22.694l2.211-0.77c-34.277 13.823-63.296 34.3-86.646 60.018l-0.172 0.193c-22.411 25.399-39.763 55.842-50.119 89.356l-0.462 1.736c-10.525 33.422-16.588 71.857-16.588 111.708 0 1.407 0.008 2.812 0.023 4.215l-0.002-0.214zM2865.783 463.441c0.18 2.893 0.282 6.274 0.282 9.679 0 37.979-12.727 72.985-34.15 100.986l0.294-0.4c-21.351 26.471-53.784 43.263-90.139 43.263-1.828 0-3.647-0.042-5.454-0.126l0.256 0.009c-0.744 0.015-1.621 0.024-2.5 0.024-21.003 0-40.85-4.949-58.439-13.743l0.757 0.343c-17.374-8.885-32.061-20.551-44.067-34.58l-0.162-0.194c-11.786-13.91-21.349-30.164-27.861-47.892l-0.356-1.109c-6.261-16.414-10.968-35.525-13.271-55.369l-0.106-1.125zM3551.875 409.201c0.011-1.071 0.017-2.337 0.017-3.605 0-40.128-6.051-78.843-17.29-115.282l0.735 2.767c-10.622-35.263-27.226-65.85-48.839-92.166l0.366 0.459c-21.070-25.169-47.226-45.346-76.965-59.089l-1.365-0.566c-29.814-13.546-64.655-21.441-101.339-21.441-1.636 0-3.268 0.016-4.896 0.047l0.244-0.004c-1.318-0.024-2.873-0.038-4.431-0.038-28.704 0-56.312 4.695-82.097 13.359l1.817-0.53c-20.983 6.736-39.135 15.041-56.068 25.173l1.213-0.673v-221.584h-98.937v734.038q35.126 8.489 87.814 18.734c34.261 6.475 73.673 10.178 113.951 10.178 2.821 0 5.638-0.018 8.45-0.054l-0.427 0.004c1.393 0.023 3.038 0.035 4.685 0.035 39.648 0 77.556-7.446 112.404-21.015l-2.111 0.723c34.141-13.428 63.234-32.969 87.244-57.504l0.043-0.044c24.163-25.266 43.215-55.642 55.351-89.322l0.557-1.771c12.612-34.629 19.905-74.605 19.905-116.284 0-1.599-0.011-3.196-0.032-4.79l0.003 0.242zM3448.517 409.201c0.301 4.238 0.472 9.183 0.472 14.169 0 51.469-18.27 98.671-48.678 135.475l0.288-0.359c-30.205 32.27-73.062 52.379-120.615 52.379-2.547 0-5.081-0.058-7.6-0.172l0.358 0.013c-2.405 0.036-5.243 0.056-8.086 0.056-21.723 0-43.168-1.19-64.274-3.508l2.606 0.232c-15.188-1.75-28.749-4.383-41.927-7.948l1.972 0.454v-349.383c14.995-11.564 32.245-21.275 50.809-28.314l1.381-0.46c21.447-8.768 46.334-13.857 72.411-13.857 0.764 0 1.527 0.004 2.288 0.013l-0.116-0.001c1.313-0.039 2.857-0.061 4.407-0.061 24.919 0 48.504 5.714 69.516 15.902l-0.95-0.415c20.11 10.213 36.745 24.638 49.249 42.207l0.278 0.412c12.707 18.215 22.306 39.634 27.466 62.729l0.225 1.199c5.402 23.038 8.498 49.491 8.498 76.668 0 0.904-0.003 1.806-0.010 2.708l0.001-0.138zM3612.554 409.172c-0.048 2.166-0.075 4.718-0.075 7.276 0 43.458 7.873 85.077 22.271 123.509l-0.798-2.43c13.31 35.336 32.466 65.635 56.563 91.23l-0.128-0.138c22.296 23.135 49.297 41.567 79.481 53.776l1.542 0.551c27.73 11.412 59.919 18.053 93.654 18.090h0.014c4 0.268 8.672 0.42 13.378 0.42 62.644 0 118.979-27.012 157.992-70.024l0.159-0.179q59.655-69.783 59.626-212.539v-16.509c0.002-0.267 0.003-0.583 0.003-0.899 0-6.285-0.384-12.481-1.129-18.565l0.073 0.73h-379.269c0.626-50.348 19.494-96.171 50.282-131.279l-0.199 0.231c32.052-28.194 74.367-45.399 120.7-45.399 5.518 0 10.979 0.244 16.373 0.722l-0.698-0.050c2.036-0.041 4.437-0.064 6.843-0.064 28.71 0 56.642 3.33 83.432 9.626l-2.46-0.487c20.733 4.823 38.683 10.853 55.84 18.358l-2.039-0.795 13.816-83.101c-18.163-8.412-39.367-15.408-61.472-19.931l-1.901-0.325c-29.371-6.809-63.097-10.712-97.734-10.712-1.781 0-3.56 0.010-5.337 0.031l0.27-0.002c-2.258-0.056-4.918-0.088-7.585-0.088-42.302 0-82.725 8.047-119.821 22.694l2.212-0.77c-34.278 13.82-63.298 34.298-86.646 60.018l-0.173 0.193c-22.415 25.397-39.767 55.841-50.119 89.357l-0.462 1.736c-10.471 33.341-16.504 71.681-16.504 111.429 0 1.515 0.009 3.028 0.026 4.539l-0.002-0.23zM3992.848 463.441c0.182 2.912 0.286 6.315 0.286 9.742 0 37.959-12.73 72.945-34.153 100.921l0.293-0.398c-21.351 26.471-53.784 43.263-90.139 43.263-1.828 0-3.647-0.042-5.454-0.126l0.256 0.009c-0.746 0.015-1.625 0.024-2.506 0.024-21.001 0-40.846-4.949-58.432-13.744l0.756 0.342c-17.365-8.883-32.042-20.55-44.037-34.579l-0.163-0.195c-11.789-13.834-21.368-29.998-27.917-47.633l-0.359-1.104c-6.265-16.415-10.972-35.527-13.271-55.372l-0.106-1.122zM4283.688 687.249h209.788v-83.131h-209.788v-255.656c-0.039-1.826-0.061-3.979-0.061-6.137 0-22.152 2.346-43.756 6.804-64.577l-0.361 2.014c3.275-16.293 9.98-30.642 19.352-42.833l-0.179 0.243c8.283-10.037 19.208-17.616 31.713-21.699l0.485-0.137c12.572-4.064 27.036-6.407 42.048-6.407 0.952 0 1.902 0.009 2.85 0.028l-0.142-0.002c2.122-0.077 4.615-0.12 7.117-0.12 23.16 0 45.447 3.739 66.29 10.646l-1.487-0.427q27.135 10.099 37.819 14.402l19.173-81.96c-14.353-6.631-31.7-13.017-49.596-18.097l-2.624-0.637c-24.245-7.136-52.099-11.242-80.912-11.242-1.521 0-3.039 0.011-4.555 0.034l0.229-0.003c-2.341-0.076-5.093-0.12-7.856-0.12-30.583 0-59.923 5.32-87.145 15.085l1.801-0.564c-23.914 9.083-43.896 23.932-58.912 42.893l-0.216 0.282c-15.084 19.913-26.079 43.775-31.254 69.736l-0.183 1.101c-5.793 27.564-9.11 59.237-9.11 91.685 0 2.025 0.013 4.047 0.039 6.066l-0.003-0.307v494.393l98.937 17.036zM4620.338 787.358c-0.419-0.010-0.912-0.016-1.406-0.016-17.028 0-32.492 6.697-43.901 17.601l0.024-0.023c-11.601 12.374-18.726 29.064-18.726 47.42s7.126 35.046 18.761 47.457l-0.035-0.038c11.892 10.898 27.808 17.577 45.283 17.577s33.39-6.678 45.333-17.622l-0.050 0.045c11.594-12.376 18.715-29.066 18.715-47.42s-7.121-35.043-18.751-47.458l0.036 0.038c-11.398-10.881-26.872-17.578-43.911-17.578-0.482 0-0.964 0.005-1.443 0.016l0.071-0.001zM4670.421 133.26h-99.171v553.96h99.084zM613.352 690.44h128.911v-557.18h-128.911v557.18zM677.193 933.451c-0.471 0.010-1.027 0.015-1.584 0.015-21.207 0-40.514-8.139-54.966-21.464l0.056 0.051c-14.497-13.765-23.515-33.178-23.515-54.698 0-1.352 0.036-2.696 0.106-4.031l-0.008 0.187c-0.053-1.043-0.083-2.264-0.083-3.493 0-21.307 9.023-40.507 23.457-53.986l0.043-0.040c14.368-13.274 33.649-21.414 54.832-21.414 0.584 0 1.167 0.006 1.749 0.019l-0.087-0.001c0.327-0.005 0.713-0.008 1.1-0.008 21.006 0 40.11 8.144 54.327 21.446l-0.045-0.041c14.475 13.556 23.495 32.786 23.495 54.123 0 1.194-0.028 2.382-0.084 3.562l0.006-0.167c0.065 1.166 0.101 2.531 0.101 3.904 0 21.502-9.021 40.897-23.485 54.607l-0.034 0.032c-14.201 13.262-33.33 21.404-54.361 21.404-0.359 0-0.717-0.002-1.074-0.007l0.054 0.001zM1002.164 255.263c-6.381 7.5-11.054 16.652-13.299 26.718l-0.078 0.416c-2.401 10.875-3.777 23.366-3.777 36.178 0 1.143 0.011 2.283 0.033 3.421l-0.003-0.171v638.116l-128.794-21.397v-641.306c-0.017-1.124-0.026-2.452-0.026-3.781 0-24.974 3.321-49.172 9.545-72.177l-0.445 1.931c5.722-21.422 16.663-39.799 31.396-54.345l0.013-0.012c16.528-15.334 36.741-26.935 59.151-33.323l1.031-0.251c28.115-8.123 60.409-12.795 93.794-12.795 0.553 0 1.105 0.001 1.657 0.004h-0.085l18.148 106.636c-15.633 1.69-29.886 4.876-43.494 9.464l1.431-0.419c-10.436 3.44-19.274 9.342-26.147 17.036l-0.051 0.058zM1354.796 704.139c-34.571-0.072-67.52-6.937-97.608-19.33l1.715 0.625c-32.476-13.13-60.146-31.912-83.056-55.364l-0.045-0.046c-24.653-25.676-44.35-56.324-57.417-90.263l-0.628-1.854c-13.871-36.215-21.905-78.104-21.905-121.87 0-2.435 0.025-4.864 0.074-7.286l-0.006 0.362c-0.013-1.176-0.021-2.565-0.021-3.957 0-39.859 6.238-78.26 17.79-114.282l-0.733 2.646c11.36-35.507 29.242-66.107 52.419-91.843l-0.199 0.224c24.284-26.265 54.203-46.949 87.868-60.179l1.615-0.559c35.742-13.859 77.109-21.889 120.351-21.889 2.629 0 5.251 0.030 7.866 0.089l-0.389-0.007c0.18 0 0.393 0 0.605 0 19.693 0 39.115 1.159 58.202 3.413l-2.314-0.222q27.691 3.22 51.664 8.020c17.214 3.363 31.521 7.058 45.504 11.479l-2.914-0.795c11.493 3.486 21.193 7.324 30.504 11.838l-1.233-0.539-17.036 105.377c-17.248-7.095-37.751-13.339-58.942-17.696l-2.294-0.394c-24.713-5.426-53.1-8.534-82.213-8.534-1.249 0-2.496 0.006-3.742 0.017l0.191-0.001c-3.709-0.272-8.034-0.427-12.396-0.427-41.421 0-79.575 13.989-109.994 37.501l0.416-0.309c-28.187 26.001-46.157 62.712-47.414 103.631l-0.005 0.224h367.648c0.703 7.113 1.229 15.075 1.61 24.061s0.527 16.86 0.527 24.061q0 141.732-64.397 213.066c-41.793 44.026-100.743 71.415-166.090 71.415-4.777 0-9.52-0.146-14.224-0.435l0.646 0.032zM1230.158 466.573c2.378 17.915 6.478 34.091 12.216 49.469l-0.507-1.552c5.818 15.992 13.977 29.786 24.213 41.747l-0.152-0.182c10.382 12.042 22.949 21.878 37.131 28.96l0.688 0.311c14.515 7.093 31.584 11.24 49.621 11.24 0.904 0 1.805-0.010 2.704-0.031l-0.134 0.002c0.863 0.024 1.88 0.037 2.899 0.037 16.883 0 32.896-3.724 47.263-10.396l-0.693 0.289c13.946-6.808 25.661-16.154 34.981-27.538l0.145-0.182c9.514-11.741 16.986-25.584 21.609-40.673l0.228-0.864c4.737-14.894 7.466-32.025 7.466-49.793 0-0.287-0.001-0.574-0.002-0.861v0.044zM2009.040 252.54c-11.159-4.457-25.573-9.172-40.303-13.113l-2.961-0.674c-17.698-4.756-38.017-7.488-58.975-7.488-1.176 0-2.35 0.009-3.522 0.026l0.177-0.002c-2.581-0.28-5.575-0.44-8.607-0.44-25.459 0-48.283 11.277-63.751 29.109l-0.089 0.105c-13.805 23.619-21.956 52.002-21.956 82.288 0 4.779 0.203 9.51 0.601 14.185l-0.042-0.61v226.824h198.138v107.689h-198.050v168.31l-128.794-21.397v-482.363c-0.019-1.565-0.030-3.413-0.030-5.263 0-33.024 3.508-65.229 10.171-96.262l-0.539 2.998c5.81-28.094 17.321-52.834 33.322-73.989l-0.333 0.46c16.382-20.577 37.779-36.493 62.367-45.995l1.005-0.342c27.298-10.231 58.845-16.152 91.775-16.152 2.725 0 5.44 0.041 8.145 0.121l-0.397-0.009c1.605-0.029 3.499-0.046 5.396-0.046 28.375 0 55.883 3.712 82.065 10.677l-2.223-0.503c23.39 6.27 42.868 12.997 61.739 20.884l-3.197-1.185zM510.551 530.092c-10.528 35.319-26.717 66.022-47.749 92.734l0.447-0.588c-20.482 25.251-46.359 45.312-75.946 58.577l-1.301 0.521c-31.003 13.142-67.058 20.78-104.897 20.78-25.588 0-50.36-3.493-73.866-10.028l1.935 0.459c-21.13-6.032-39.342-13.318-56.598-22.199l1.714 0.802v288.85l-42.297-7.142-111.641-19.143v-72.652c22.284-8.809 37.762-30.163 37.762-55.133s-15.477-46.324-37.361-54.993l-0.4-0.14v-67.997c21.844-9.025 36.936-30.163 36.936-54.825s-15.092-45.8-36.543-54.681l-0.393-0.144v-67.529c21.844-9.025 36.936-30.163 36.936-54.825s-15.092-45.8-36.543-54.681l-0.393-0.144v-62.143c22.659-8.614 38.469-30.151 38.469-55.381s-15.81-46.768-38.064-55.246l-0.406-0.136c-0.231-3.501-0.363-7.589-0.363-11.709s0.132-8.208 0.392-12.262l-0.028 0.553c0.281-16.121 4.474-31.201 11.668-44.413l-0.252 0.506c5.137-8.36 13.237-14.475 22.805-16.921l0.26-0.056h36.179c15.426-3.337 32.198-6.528 50.639-9.572 35.864-6.094 77.178-9.576 119.305-9.576 0.939 0 1.877 0.002 2.815 0.005h-0.146c1.552-0.027 3.383-0.042 5.217-0.042 40.593 0 79.447 7.444 115.272 21.042l-2.233-0.744c34.883 13.394 64.578 33.316 88.889 58.474l0.067 0.069c24.288 25.63 43.509 56.334 55.885 90.327l0.579 1.82c12.505 34.531 19.735 74.384 19.735 115.926 0 1.756-0.013 3.509-0.039 5.258l0.003-0.265c0.015 1.306 0.024 2.849 0.024 4.394 0 40.712-6.020 80.017-17.217 117.076l0.743-2.862zM354.476 279.734c-25.453-29.84-63.087-48.639-105.113-48.639-2.379 0-4.743 0.060-7.092 0.179l0.33-0.013c-1.238-0.013-2.701-0.020-4.166-0.020-17.095 0-33.962 0.975-50.549 2.872l2.027-0.188c-13.964 1.566-26.119 3.625-38.044 6.293l2.332-0.438v320.668c29.829 19.264 66.248 30.76 105.344 30.881h0.033c2.678 0.221 5.797 0.347 8.946 0.347 38.54 0 72.666-18.894 93.622-47.925l0.233-0.34c20.606-33.635 32.809-74.353 32.809-117.921 0-4.237-0.115-8.446-0.343-12.626l0.025 0.582c0.224-3.567 0.352-7.735 0.352-11.933 0-45.935-15.312-88.293-41.111-122.249l0.364 0.5z" />
<glyph unicode="&#xe935;" glyph-name="chevron-up" horiz-adv-x="1660" d="M-0.416 129.792l193.792-193.792 637.124 637.124 637.124-637.124 193.792 193.792-830.208 830.208z" />
<glyph unicode="&#xe936;" glyph-name="left-menu" horiz-adv-x="1775" d="M0 960h1570.133v-204.8h-1570.133v204.8zM0 550.4h1774.933v-204.8h-1774.933v204.8zM0 140.8h955.733v-204.8h-955.733v204.8z" />
<glyph unicode="&#xe937;" glyph-name="instagram" d="M1021.176 658.958c-0.949 44.858-9.646 87.407-24.799 126.749l0.866-2.559c-27.182 69.022-80.732 122.66-147.918 149.34l-1.773 0.621c-36.799 14.198-79.357 22.817-123.811 23.703l-0.379 0.006c-54.812 2.599-72.246 3.182-211.272 3.182s-156.415-0.583-211.003-3.003c-44.867-0.931-87.434-9.613-126.796-24.754l2.56 0.866c-35.567-13.539-65.881-33.655-90.806-59.074l-0.040-0.041c-25.326-24.95-45.382-55.174-58.396-88.899l-0.585-1.723c-14.23-36.807-22.88-79.376-23.792-123.846l-0.006-0.39c-2.599-54.812-3.227-72.202-3.227-211.227s0.583-156.415 3.003-211.048c0.897-44.856 9.549-87.428 24.663-126.797l-0.864 2.562c27.237-68.994 80.832-122.59 148.051-149.207l1.775-0.62c36.807-14.23 79.376-22.88 123.846-23.792l0.39-0.006c54.588-2.42 72.022-3.003 211.048-3.003s156.415 0.583 211.048 3.003c44.856 0.895 87.428 9.547 126.796 24.663l-2.561-0.864c69.018 27.198 122.628 80.808 149.208 148.052l0.618 1.774c14.225 36.807 22.874 79.375 23.792 123.843l0.006 0.393c2.42 54.633 3.003 72.022 3.003 211.048s-0.224 156.415-2.644 211.048zM928.986 240.896c-0.364-34.215-6.792-66.82-18.258-96.941l0.644 1.927c-17.638-44.786-52.424-79.572-96.059-96.809l-1.151-0.401c-28.194-10.802-60.797-17.228-94.85-17.612l-0.164-0.001c-54.006-2.42-70.23-3.003-206.835-3.003s-153.008 0.583-206.835 3.003c-34.214 0.36-66.82 6.789-96.94 18.257l1.926-0.644c-23.067 8.618-42.713 21.65-58.763 38.19l-0.038 0.040c-16.53 16.105-29.552 35.725-37.866 57.662l-0.364 1.095c-10.801 28.194-17.227 60.796-17.612 94.849l-0.001 0.165c-2.42 54.006-3.003 70.23-3.003 206.835s0.583 153.008 3.003 206.835c0.36 34.214 6.789 66.82 18.257 96.94l-0.644-1.926c8.605 23.102 21.706 42.76 38.357 58.751l0.052 0.050c16.115 16.524 35.753 29.533 57.707 37.822l1.095 0.363c28.194 10.798 60.796 17.224 94.848 17.612l0.166 0.001c54.006 2.42 70.23 3.003 206.835 3.003s153.008-0.583 206.835-3.003c34.215-0.363 66.82-6.791 96.941-18.258l-1.927 0.644c23.066-8.601 42.713-21.618 58.764-38.146l0.037-0.038c16.537-16.116 29.559-35.752 37.866-57.706l0.364-1.095c10.799-28.194 17.225-60.796 17.612-94.848l0.001-0.166c2.42-54.006 3.003-70.23 3.003-206.835s-0.627-152.65-3.003-206.655zM512.090 710.947c-145.271 0-263.036-117.765-263.036-263.036s117.765-263.036 263.036-263.036c145.271 0 263.036 117.765 263.036 263.036v0c-0.051 145.25-117.786 262.985-263.032 263.036h-0.005zM512.090 277.244c-94.232 0-170.622 76.39-170.622 170.622s76.39 170.622 170.622 170.622c94.232 0 170.622-76.39 170.622-170.622v0c-0.025-94.221-76.4-170.596-170.619-170.622h-0.003zM846.969 721.345c0-33.911-27.49-61.401-61.401-61.401s-61.401 27.49-61.401 61.401c0 33.911 27.49 61.401 61.401 61.401v0c33.911 0 61.401-27.49 61.401-61.401v0z" />
<glyph unicode="&#xe938;" glyph-name="linkedin-letters" horiz-adv-x="1071" d="M13.254 627.241h230.208v-691.241h-230.208v691.241zM998.896 564.115c-45.384 48.896-110.006 79.394-181.75 79.394-3.551 0-7.086-0.075-10.601-0.223l0.502 0.017c-0.937 0.011-2.043 0.018-3.151 0.018-27.33 0-53.734-3.966-78.667-11.354l1.956 0.497c-23.235-6.672-43.474-17.066-61.139-30.644l0.428 0.316c-26.634-19.968-48.829-44.203-65.966-71.897l-0.642-1.114v98.283h-229.309l0.73-33.697q0.73-33.697 0.73-206.451t-1.404-451.317h229.478v385.776c-0.065 1.742-0.101 3.788-0.101 5.842 0 18.091 2.851 35.515 8.129 51.849l-0.333-1.193c9.88 23.947 25.008 43.998 44.036 59.427l0.276 0.217c19.015 15.059 43.35 24.158 69.809 24.158 1.343 0 2.681-0.023 4.013-0.070l-0.193 0.005c2.192 0.172 4.746 0.271 7.322 0.271 33.26 0 62.698-16.362 80.705-41.476l0.203-0.298c17.848-29.498 28.409-65.135 28.409-103.239 0-4.046-0.119-8.064-0.354-12.050l0.026 0.55v-369.714h229.478v396.222c0.533 7.052 0.837 15.275 0.837 23.568 0 79.173-27.702 151.876-73.942 208.946l0.487-0.621zM129.734 960c-1.753 0.084-3.807 0.131-5.872 0.131-33.895 0-64.791-12.843-88.086-33.929l0.112 0.1c-22.132-20.574-35.934-49.849-35.934-82.348 0-1.14 0.017-2.276 0.051-3.408l-0.004 0.166c-0.023-0.851-0.036-1.853-0.036-2.858 0-32.269 13.373-61.414 34.88-82.196l0.033-0.031c22.495-21.26 52.926-34.329 86.409-34.329 1.984 0 3.957 0.046 5.918 0.137l-0.278-0.010h1.404c1.774-0.086 3.853-0.134 5.943-0.134 34.175 0 65.304 13.045 88.678 34.427l-0.1-0.090c21.898 20.239 35.564 49.109 35.564 81.171 0 1.377-0.025 2.747-0.075 4.112l0.006-0.197c0.008 0.501 0.012 1.092 0.012 1.685 0 32.863-13.623 62.545-35.529 83.705l-0.034 0.032c-22.686 21.084-53.195 34.023-86.725 34.023-2.228 0-4.443-0.057-6.643-0.17l0.308 0.013z" />
<glyph unicode="&#xe939;" glyph-name="twitter" horiz-adv-x="1260" d="M1260.331 838.792c-43.32-19.432-93.578-33.764-146.212-40.5l-2.681-0.28c53.466 32.205 93.616 81.885 112.91 140.993l0.513 1.817c-47.163-28.461-102.058-50.16-160.534-61.979l-3.31-0.559c-47.263 50.388-114.261 81.778-188.591 81.778-142.68 0-258.346-115.665-258.346-258.346 0-0.040 0-0.080 0-0.12v0.006c-0.009-0.824-0.014-1.797-0.014-2.771 0-19.895 2.184-39.279 6.325-57.927l-0.33 1.769c-215.296 10.908-404.671 113.345-531.365 268.872l-1.051 1.331c-22.254-37.39-35.408-82.444-35.408-130.57 0-89.186 45.175-167.821 113.89-214.271l0.913-0.582c-43.011 1.184-83.055 12.831-118.004 32.472l1.282-0.662v-2.836c0.169-124.605 88.106-228.623 205.297-253.558l1.699-0.303c-19.712-5.408-42.347-8.515-65.706-8.515-0.716 0-1.432 0.003-2.147 0.009l0.109-0.001c-1.18-0.022-2.571-0.034-3.965-0.034-15.912 0-31.444 1.627-46.439 4.723l1.478-0.255c34.39-103.329 128.93-177.058 241.097-179.974l0.339-0.007c-87.198-68.66-198.614-110.123-319.715-110.123-0.175 0-0.35 0-0.525 0h0.027c-0.953-0.007-2.079-0.011-3.206-0.011-20.676 0-41.049 1.296-61.042 3.812l2.381-0.244c111.317-72.705 247.612-115.953 394.009-115.953 0.827 0 1.654 0.001 2.48 0.004h-0.129c1.506-0.011 3.287-0.018 5.069-0.018 403.355 0 730.339 326.984 730.339 730.339 0 1.747-0.006 3.492-0.018 5.235l0.001-0.268c0 11.445-0.412 22.427-0.928 33.408 51.157 36.887 94.162 81.353 128.336 132.244l1.172 1.852z" />
<glyph unicode="&#xe93a;" glyph-name="facebook" d="M895.989 960h-767.978c-70.668-0.076-127.935-57.343-128.011-128.004v-767.985c0.076-70.668 57.343-127.935 128.004-128.011h383.996v351.997h-128.011v160.003h128.011v128.011c0 106.11 86.019 192.128 192.128 192.128v0h128.011v-160.137h-64.162c-35.343 0-63.983 3.306-63.983-31.992v-128.011h160.003l-64.207-160.003h-95.796v-351.997h192.128c70.668 0.076 127.935 57.343 128.011 128.004v767.985c-0.076 70.715-57.42 128.011-128.145 128.011v0z" />
<glyph unicode="&#xe93b;" glyph-name="times" d="M602.419 448l402.739 402.739c11.61 11.571 18.794 27.577 18.794 45.261s-7.184 33.69-18.792 45.259l-0.002 0.002c-11.571 11.61-27.577 18.794-45.261 18.794s-33.69-7.184-45.259-18.792l-402.639-402.741-402.739 402.739c-11.571 11.61-27.577 18.794-45.261 18.794s-33.69-7.184-45.259-18.792l-0.002-0.002c-11.61-11.571-18.794-27.577-18.794-45.261s7.184-33.69 18.792-45.259l402.741-402.741-402.739-402.637c-11.585-11.582-18.751-27.585-18.751-45.261s7.166-33.678 18.751-45.261v0c11.566-11.578 27.55-18.739 45.206-18.739 0.019 0 0.038 0 0.057 0h-0.003c0.016 0 0.035 0 0.054 0 17.657 0 33.641 7.162 45.206 18.739l402.74 402.74 402.739-402.739c11.566-11.578 27.55-18.739 45.206-18.739 0.019 0 0.038 0 0.057 0h-0.003c0.016 0 0.035 0 0.054 0 17.657 0 33.641 7.162 45.206 18.739l0.001 0.001c11.585 11.582 18.751 27.585 18.751 45.261s-7.166 33.678-18.751 45.261v0z" />
<glyph unicode="&#xe93c;" glyph-name="chevron-down-o" horiz-adv-x="1707" d="M853.333-64l-853.333 1024h1706.667z" />
<glyph unicode="&#xe93d;" glyph-name="lrlinkedin" d="M0 640h229.004v-704h-229.004v704zM852.713 631.761c-2.42 0.791-4.655 1.583-7.308 2.281s-6.144 1.257-9.309 1.815c-12.335 2.634-26.506 4.143-41.030 4.143-0.024 0-0.049 0-0.073 0h0.004c-101.688-4.621-190.41-56.301-245.425-133.631l-0.661-0.979v134.609h-228.911v-704h229.004v384s173.056 241.012 246.086 64v-448h228.911v475.089c-0.191 105.665-72.134 194.474-169.694 220.313l-1.593 0.359zM279.273 820.364c0-77.119-62.517-139.636-139.636-139.636s-139.636 62.517-139.636 139.636c0 77.119 62.517 139.636 139.636 139.636s139.636-62.517 139.636-139.636z" />
<glyph unicode="&#xe93e;" glyph-name="search" horiz-adv-x="1020" d="M985.717 153.068l-168.524 168.524c31.034 59.319 49.771 129.378 51.076 203.688l0.006 0.417c0 239.767-194.37 434.137-434.137 434.137s-434.137-194.37-434.137-434.137c0-239.767 194.37-434.137 434.137-434.137v0c74.726 1.31 144.785 20.047 206.677 52.302l-2.572-1.22 168.524-168.524c22.521-23.617 54.228-38.303 89.365-38.303s66.844 14.686 89.318 38.254l0.047 0.049c21.5 23.557 34.669 55.039 34.669 89.597 0 34.442-13.081 65.829-34.546 89.464l0.098-0.11zM434.082 193.945c-183.32 0.031-331.919 148.649-331.919 331.974 0 183.344 148.63 331.974 331.974 331.974s331.974-148.63 331.974-331.974c0-0.019 0-0.039 0-0.058v0.003c0-0.197 0.001-0.43 0.001-0.663 0-182.979-148.333-331.312-331.312-331.312-0.233 0-0.466 0-0.699 0.001h0.036z" />
<glyph unicode="&#xe93f;" glyph-name="lrtwitter" horiz-adv-x="1260" d="M1260.316 838.77c-43.315-19.433-93.568-33.768-146.197-40.509l-2.682-0.28c53.605 32.144 93.879 81.827 113.263 140.975l0.515 1.817c-47.161-28.476-102.053-50.188-160.528-62.018l-3.312-0.559c-47.265 50.425-114.285 81.841-188.644 81.841-142.673 0-258.332-115.659-258.332-258.332 0-0.052 0-0.104 0-0.156v0.008c-0.009-0.836-0.015-1.823-0.015-2.812 0-19.883 2.181-39.256 6.318-57.893l-0.33 1.768c-215.353 10.891-404.779 113.363-531.485 268.946l-1.052 1.333c-22.183-37.343-35.294-82.327-35.294-130.374 0-89.242 45.232-167.92 114.022-214.358l0.916-0.583c-43.015 1.178-83.064 12.823-118.019 32.463l1.283-0.662v-2.844c0.154-124.625 88.107-228.664 205.32-253.592l1.699-0.303c-19.625-5.356-42.158-8.434-65.41-8.434-0.944 0-1.887 0.005-2.829 0.015l0.144-0.001c-1.174-0.022-2.558-0.034-3.945-0.034-15.918 0-31.456 1.628-46.457 4.727l1.478-0.255c34.389-103.332 128.929-177.067 241.097-179.989l0.34-0.007c-87.215-68.703-198.665-110.194-319.806-110.194-0.188 0-0.377 0-0.565 0h0.029c-1.146-0.010-2.502-0.015-3.859-0.015-20.434 0-40.573 1.266-60.341 3.725l2.362-0.24c111.312-72.699 247.6-115.943 393.989-115.943 0.828 0 1.657 0.001 2.484 0.004h-0.128c1.509-0.011 3.294-0.018 5.080-0.018 403.355 0 730.34 326.984 730.34 730.34 0 1.726-0.006 3.451-0.018 5.175l0.001-0.265c0 11.378-0.398 22.471-0.967 33.394 51.173 36.896 94.188 81.378 128.365 132.291l1.171 1.853z" />
<glyph unicode="&#xe940;" glyph-name="check" horiz-adv-x="1365" d="M0 404.475l467.345-468.424 897.971 896.841-128.905 127.108-769.066-768.141-340.238 340.597z" />
<glyph unicode="&#xe941;" glyph-name="lrfacebook" horiz-adv-x="517" d="M16.463 414.602h112.246v-462.1c0-9.114 7.388-16.502 16.502-16.502v0h190.267c9.114 0 16.502 7.388 16.502 16.502v460.052h129.221c0.009 0 0.019 0 0.030 0 8.448 0 15.413 6.348 16.386 14.534l0.008 0.078 19.692 170.142c0.069 0.567 0.109 1.224 0.109 1.89 0 9.114-7.388 16.502-16.502 16.502-0.011 0-0.021 0-0.031 0h-148.636v106.535c0 32.138 17.29 48.443 51.436 48.443h97.201c9.114 0 16.502 7.388 16.502 16.502v0 156.199c0 0.035 0 0.077 0 0.118 0 9.114-7.388 16.502-16.502 16.502 0 0 0 0 0 0h-133.908c-0.945 0-3.033 0-6.144 0-64.409-0.232-123.187-24.156-168.114-63.506l0.296 0.254c-36.957-32.424-60.162-79.748-60.162-132.492 0-8.445 0.595-16.751 1.745-24.878l-0.108 0.934v-124.692h-118.036c-9.114 0-16.502-7.388-16.502-16.502v0-167.936c0-0.023 0-0.051 0-0.079 0-9.114 7.388-16.502 16.502-16.502 0 0 0 0 0 0v0z" />
<glyph unicode="&#xe942;" d="M226.956 341.178l-35.654-133.027-130.327-2.746c-38.424 70.189-61.023 153.773-61.023 242.635 0 86.019 21.176 167.092 58.599 238.29l-1.346-2.811 115.991-21.271 50.874-115.247c-10.409-29.466-16.423-63.445-16.423-98.83 0-38.398 7.083-75.142 20.012-108.997l-0.703 2.096z" />
<glyph unicode="&#xe943;" d="M1015.063 543.651c5.73-28.752 9.010-61.806 9.010-95.627 0-161.016-74.326-304.672-190.541-398.53l-0.973-0.761-146.106 7.447-20.666 129.071c59.948 35.579 105.855 89.412 130.599 153.746l0.706 2.088h-273.78v202.566h491.799z" />
<glyph unicode="&#xe944;" d="M832.512 48.733v0c-86.929-70.283-198.812-112.828-320.633-112.828-193.929 0-362.675 107.818-449.566 266.78l-1.338 2.673 165.935 135.82c44.556-116.402 155.352-197.555 285.102-197.555 56.639 0 109.667 15.464 155.090 42.4l-1.408-0.773z" />
<glyph unicode="&#xe945;" d="M838.796 842.147l-165.841-135.82c-45.709 28.891-101.34 46.037-160.976 46.037-132.693 0-245.56-84.889-287.255-203.323l-0.654-2.133-166.772 136.564c87.068 165.581 257.902 276.566 454.659 276.566 124.637 0 238.872-44.535 327.661-118.559l-0.822 0.666z" />
<glyph unicode="&#xe946;" glyph-name="chevron-down" horiz-adv-x="1660" d="M1660.416 766.208l-193.792 193.792-637.124-637.124-637.124 637.124-193.792-193.792 830.208-830.208z" />
<glyph unicode="&#xe947;" glyph-name="chevron-left" horiz-adv-x="631" d="M512.020-64l119.38 119.38-392.521 392.521 392.6 392.64-119.38 119.38-512.099-511.901z" />
<glyph unicode="&#xe948;" glyph-name="chevron-right" horiz-adv-x="631" d="M119.459 960l-119.38-119.38 392.521-392.521-392.6-392.64 119.38-119.38 512.099 511.901z" />
<glyph unicode="&#xe949;" glyph-name="home-flight-ticket" horiz-adv-x="5394" d="M518.122 847.969v-500.76c0-66.707-43.862-99.604-88.638-99.604-43.862 0-87.724 32.897-87.724 99.604v498.019c-12.992 2.908-27.914 4.575-43.225 4.575-0.545 0-1.090-0.002-1.634-0.006l0.083 0.001c-162.656 0-296.984-99.604-296.984-216.57 0-78.586 45.69-109.656 118.793-109.656-10.052 15.535-31.983 32.897-31.983 106.914-0.125 2.384-0.196 5.176-0.196 7.985 0 76.333 52.493 140.406 123.35 158.089l1.122 0.237v-440.45c0-132.5 108.742-198.294 218.397-198.294 108.742 0 218.397 65.793 218.397 198.294v491.622zM1124.883 47.483c0 41.121-22.845 63.966-68.535 63.966-16.792-0.512-32.763-3.148-47.932-7.649l1.329 0.338 8.224 48.431c98.69 11.879 178.19 69.449 201.949 167.225l-22.845 9.138c-30.264-57.45-89.57-95.949-157.868-95.949-0.077 0-0.154 0-0.23 0h0.012c-87.724 0-157.173 63.052-157.173 265.915 0 152.604 39.293 307.949 121.535 307.949 35.937-2.349 64.197-32.073 64.197-68.397 0-1.978-0.084-3.937-0.248-5.873l0.017 0.253c0.065-1.241 0.102-2.694 0.102-4.156 0-24.27-10.206-46.155-26.561-61.599l-0.041-0.038c14.805-14.604 35.12-23.656 57.549-23.759h0.020c37.466 0 49.345 25.586 49.345 62.138 0 97.776-84.069 144.38-175.449 144.38-188.242 0-239.415-200.121-239.415-365.518 0-222.052 91.38-333.536 245.811-334.449l-12.793-94.121c11.318 6.991 25.037 11.133 39.724 11.133 1.778 0 3.541-0.061 5.288-0.18l-0.236 0.013c1.001 0.088 2.166 0.138 3.342 0.138 22.382 0 40.527-18.144 40.527-40.527 0-0.257-0.002-0.514-0.007-0.77l0.001 0.038c0-15.535-7.31-30.155-20.104-30.155-25.586 0-35.638 24.672-73.104 24.672-17.362 0-24.672-14.621-30.155-29.241 29.603-16.114 64.83-25.589 102.269-25.589 0.348 0 0.696 0.001 1.043 0.002h-0.054c1.987-0.168 4.3-0.263 6.636-0.263 45.834 0 83.078 36.779 83.829 82.434l0.001 0.071zM1661.281 164.449v672.554c-21.738 7.785-46.821 12.443-72.944 12.791l-0.16 0.002c-106 0-197.38-124.276-258.604-269.57-21.017 1.828-40.207 2.741-53.914 2.741-96.862 0-162.656-42.948-162.656-100.518 0-0.012 0-0.025 0-0.039 0-35.895 29.099-64.994 64.994-64.994 1.568 0 3.122 0.055 4.662 0.165l-0.207-0.012c25.586 0 44.776 11.879 44.776 30.155 0 14.621-13.707 33.81-19.19 33.81 5.483 31.983 42.948 44.776 101.431 48.431-36.699-92.708-60.366-199.987-65.707-312.066l-0.087-2.28c0-152.604 87.724-155.345 148.949-155.345-12.793 14.621-32.897 37.466-32.897 139.811 2.121 117.45 17.993 230.212 46.072 338.048l-2.21-9.995c46.174-4.425 88.604-15.766 127.843-33.024l-2.653 1.041v-331.708zM1528.781 536.364c-31.708 11.857-70.028 22.601-109.44 30.291l-4.785 0.778c28.328 101.431 67.621 186.414 114.225 216.57zM2029.541 847.969c-11.879 0.914-24.672 1.828-38.379 1.828-138.897 0-271.397-96.862-271.397-220.225 0-72.19 45.69-106 118.793-106-20.095 25.571-32.227 58.227-32.227 93.716 0 3.036 0.089 6.050 0.264 9.042l-0.019-0.413c0 75.845 32.897 129.759 91.38 158.087v-619.554h131.587v344.501c9.274 2.167 19.973 3.49 30.952 3.654l0.117 0.001c55.742 0 71.276-45.69 71.276-111.483 0-42.948-6.397-116.966-6.397-150.776 0-70.362 27.414-101.431 86.811-101.431 32.001 1.014 62.342 6.622 90.871 16.184l-2.233-0.649c-31.983 11.879-52.086 42.035-52.086 101.431 0 28.328 4.569 99.604 4.569 134.328 0 112.397-49.345 153.518-142.552 153.518-13.707 0-19.19-0.914-31.983-0.914l194.639 292.415h-84.983l-159.001-289.673zM2687.474 745.623v-581.174h131.587v349.984c16.448 1.828 34.724 2.741 42.035 2.741 102.345 0 118.793-94.121 118.793-151.69 0-61.224-16.448-128.845-63.052-128.845-27.141 2.28-51.071 14.45-68.489 32.848l-0.046 0.049c-4.694-13.82-7.661-29.768-8.217-46.328l-0.007-0.276c0-55.742 47.517-74.017 112.397-74.017 118.793 0 151.69 133.414 151.69 224.794 0 89.552-43.862 171.794-149.863 186.414 41.052 28.65 67.584 75.645 67.621 128.839v0.006c0 79.5-74.017 160.828-220.225 160.828-163.57 0-292.415-101.431-292.415-215.656 0-79.5 45.69-110.569 118.793-110.569-7.31 13.707-31.983 30.155-31.983 105.087 0 120.621 97.776 179.104 196.466 179.104 95.949 0 135.242-55.742 135.242-112.397 0-64.88-39.293-134.328-102.345-134.328h-6.397v202.863zM3250.281 510.686l-72.738-69.608c-6.432 20.68-10.175 44.463-10.257 69.109v0.043c-0.077 2.204-0.121 4.795-0.121 7.396 0 71.661 33.329 135.538 85.331 176.975l0.458 0.353q85.668 69.608 227.558 69.608h35.25q-20.081-102.185-24.101-137.435l-24.079-218.237-5.803-49.528c-2.019-33.918-11.943-65.131-27.939-92.347l0.525 0.967c-20.257-23.772-45.764-42.458-74.773-54.356l-1.3-0.472 129.394-6.694-53.64-51.835-217.232 9.823 57.112 55.33 48.637-5.346q54.439 34.267 66.936 140.542l4.912 43.291 34.267 312.336h-13.821q-185.615 0-185.615-122.7c0.45-28.459 8.201-55.014 21.455-77.996l-0.415 0.78zM3474.71 833.805c-11.519 26.008-29.349 47.433-51.6 62.959l-0.486 0.321 66.045 62.915c21.212-16.972 38.468-37.936 50.81-61.849l0.5-1.066zM3855.786 838.899c-11.879 0.914-24.672 1.828-38.379 1.828-138.897 0-271.397-96.862-271.397-220.225 0-72.19 45.69-106 118.793-106-20.119 25.661-32.263 58.411-32.263 93.998 0 3.258 0.102 6.493 0.302 9.7l-0.022-0.439c-0.229 3.242-0.36 7.025-0.36 10.839 0 63.785 36.571 119.028 89.889 145.906l0.937 0.428v-632.415c5.257 0.606 11.348 0.952 17.52 0.952 1.23 0 2.456-0.014 3.679-0.041l-0.182 0.003c159.001 0 299.725-207.432 414.863-207.432 68.535 0 101.431 72.19 101.431 127.018 0.024 0.815 0.038 1.773 0.038 2.735 0 4.837-0.346 9.594-1.014 14.246l0.063-0.532c-20.499-9.25-44.44-14.64-69.64-14.64-0.897 0-1.791 0.007-2.685 0.020l0.135-0.002c-117.88 0-232.104 95.035-331.708 116.966zM4397.69 328.932c-19.19-58.483-90.466-93.207-149.863-93.207-76.759 0-109.656 59.397-109.656 125.19 0 75.845 42.035 167.225 120.621 185.501-69.862 14.695-121.559 75.812-121.559 149.003 0 0.945 0.009 1.888 0.026 2.828l-0.002-0.141c0 52.086 22.845 99.604 76.759 99.604 1.883 0.24 4.062 0.378 6.272 0.378 28.88 0 52.292-23.412 52.292-52.292 0-1.025-0.029-2.043-0.088-3.053l0.006 0.14c0-25.586-10.966-55.742-28.328-61.224 11.651-12.957 28.017-21.473 46.375-22.831l0.229-0.014c31.983 0 47.517 37.466 47.517 79.5 0 83.155-62.138 113.311-132.5 113.311-117.88 0-182.759-84.069-182.759-168.138 0.675-59.333 33.75-110.788 82.335-137.569l0.821-0.415c-83.155-21.017-124.276-114.225-124.276-194.639 0-104.173 68.535-202.863 206.518-202.863 108.742 0 206.518 62.138 232.104 171.794zM4884.697 731.003c69.449 0 96.862 29.241 96.862 84.069-0.089 11.361-1.082 22.422-2.912 33.199l0.171-1.216c-29.498-12.219-63.753-19.315-99.667-19.315-2.87 0-5.729 0.045-8.577 0.135l0.416-0.010c-75.845 0-129.759 21.017-227.535 21.017-199.208 0-272.311-88.638-272.311-203.777 0-91.38 45.69-122.449 122.449-122.449-9.138 11.879-33.81 26.5-33.81 106 0 88.638 31.069 140.725 141.638 140.725h9.138v-604.933h132.5v586.657c41.637-10.504 90.163-17.698 139.958-20.041l1.68-0.063zM5104.008 510.686l-72.738-69.608c-6.432 20.68-10.175 44.463-10.257 69.109v0.043c-0.077 2.204-0.121 4.795-0.121 7.396 0 71.661 33.329 135.538 85.331 176.975l0.458 0.353q85.668 69.608 227.558 69.608h35.25q-20.081-102.185-24.101-137.435l-24.124-218.237-5.803-49.528c-2.019-33.918-11.943-65.131-27.939-92.347l0.525 0.967c-20.257-23.772-45.764-42.458-74.773-54.356l-1.3-0.472 129.394-6.694-53.571-51.835-217.301 9.823 57.112 55.33 48.637-5.346q54.439 34.267 66.936 140.542l4.912 43.291 34.267 312.336h-13.867q-185.615 0-185.615-122.7c0.48-28.469 8.262-55.021 21.546-77.993l-0.414 0.777zM5328.391 833.805c-11.54 26.046-29.41 47.497-51.712 63.027l-0.489 0.322 66.045 62.915c21.212-16.972 38.468-37.936 50.81-61.849l0.5-1.066z" />
<glyph unicode="&#xe94a;" glyph-name="home-car" horiz-adv-x="3299" d="M150.873-62.69c-1.905-0.050-4.149-0.078-6.399-0.078-28.651 0-56.231 4.587-82.045 13.067l1.857-0.528c-20.918 4.972-38.574 16.629-51.036 32.548l-0.15 0.199c-8.601 19.74-13.606 42.737-13.606 66.903 0 4.634 0.184 9.226 0.545 13.767l-0.038-0.599c0.674 100.694 16.69 197.406 45.821 288.246l-1.89-6.821q53.739 174.652 106.269 301.107c7.044 18.697 13.883 33.884 21.506 48.599l-1.186-2.517 50.38 100.358c23.739 48.258 50.156 89.791 80.483 128.085l-1.117-1.462c17.805 24.864 46.281 41.105 78.593 41.981l0.135 0.003c1.193 0.057 2.591 0.090 3.997 0.090 14.689 0 28.549-3.546 40.772-9.829l-0.502 0.234c9.678-5.21 17.991-11.435 25.257-18.707l0.001-0.001c14.145-20.053 25.194-43.473 31.807-68.69l0.336-1.506c8.813-26.173 15.31-56.693 18.249-88.247l0.123-1.632q1.31-17.062 11.151-68.887 5.24-30.833 17.062-117.554 25.593-184.997 26.87-208.609 1.31-34.763 5.911-74.798 0.672-0.672 11.487-129.545t10.983-159.74c0.046-0.921 0.072-1.999 0.072-3.084 0-15.35-5.208-29.483-13.954-40.729l0.112 0.15c-8.478-10.308-21.234-16.832-35.513-16.832-0.658 0-1.312 0.014-1.963 0.041l0.093-0.003c-0.154-0.001-0.337-0.002-0.519-0.002-14.982 0-28.752 5.19-39.609 13.871l0.127-0.098c-5.5 4.578-9.619 10.64-11.753 17.573l-0.069 0.262c-8.339 24.288-13.153 52.273-13.153 81.383 0 1.145 0.007 2.288 0.022 3.429l-0.002-0.173q0 13.133-10.479 135.12-15.081 195.476-19.682 223.051c-22.902-0.198-45.041-3.052-66.251-8.268l1.966 0.409q-13.133-2.62-25.593-4.904t-17.7-24.586q-22.302-99.72-27.541-137.707l-26.265-151.007c-6.698-37.933-19.032-71.852-36.245-102.676l0.844 1.646c-10.556-23.689-27.779-42.816-49.279-55.448l-0.564-0.307c-10.323-4.195-22.299-6.629-34.843-6.629-1.366 0-2.725 0.029-4.076 0.086l0.193-0.006zM362.773 508.692q45.275 6.717 77.25 13.771-2.62 72.817-6.717 116.11c-3.081 33.085-7.944 62.858-14.665 91.92l0.895-4.593c-2.397-9.26-4.587-20.841-6.092-32.636l-0.155-1.489c-3.22-21.506-6.993-39.685-11.652-57.507l0.837 3.768c-11.786-50.809-25.431-94-41.965-135.73l2.231 6.387zM804.24-64q-43.294 0-50.851 59.382t-17.398 174.182q-14.442 163.334-14.442 216.468c0.329 27.874 2.223 54.94 5.601 81.543l-0.361-3.486q2.62 27.541 2.62 59.684 0 158.766 10.513 323.409c1.008 24.716 14.010 46.193 33.308 58.873l0.279 0.172c16.705 11.1 36.914 18.245 58.685 19.663l0.361 0.019c0.402-0.004 0.878-0.006 1.354-0.006 20.058 0 39.218 3.849 56.78 10.849l-1.036-0.364c3.383 2.035 7.45 3.272 11.798 3.358h0.024l158.766-15.752c52.34-0.788 100.232-19.203 138.157-49.553l-0.45 0.348c15.469-15.383 29.215-32.471 40.941-50.967l0.707-1.194c11.572-17.274 21.453-37.126 28.654-58.221l0.533-1.799c17.503-47.41 29.027-102.228 32.082-159.296l0.061-1.418c-2.293-86.162-24.389-166.664-61.876-237.794l1.419 2.954c-14.643-32.764-36.291-60.088-63.176-80.995l-0.472-0.353q-20.32-15.081-40.674-32.143c-25.002-24.105-55.896-42.272-90.302-52.123l-1.525-0.373 21.664-20.387c12.801-9.303 28.564-15.281 45.656-16.377l0.258-0.013c17.878-3.44 33.497-7.98 48.489-13.78l-1.904 0.648c14.626-4.984 31.476-7.862 48.997-7.862 0.297 0 0.595 0.001 0.892 0.002h-0.046c1.78 0.178 3.846 0.279 5.937 0.279 14.926 0 28.645-5.168 39.465-13.812l-0.127 0.098c8.489-7.985 13.775-19.29 13.775-31.831 0-0.228-0.002-0.455-0.005-0.682v0.034q0-34.763-0.672-51.153-3.258-45.309-66.905-46.619l-63.614-0.638c-0.166 0-0.364-0.001-0.561-0.001-38.163 0-74.301 8.672-106.551 24.152l1.48-0.64-59.046 27.541c-20.173 8.951-37.562 19.828-53.169 32.777l0.37-0.299c-14.53 13.499-27.738 27.965-39.695 43.446l-0.61 0.821c-2.916-23.177-4.587-50.011-4.601-77.232v-0.018l0.638-64.319c0.077-0.99 0.121-2.144 0.121-3.307 0-11.3-4.14-21.633-10.985-29.565l0.049 0.058c-11.21-8.895-25.404-14.478-40.877-15.076l-0.133-0.004c-5.38-0.706-11.744-1.178-18.192-1.307l-0.18-0.003zM902.717 298.236l7.221 0.672c52.115 8.667 98.56 27.797 138.915 55.219l-1.209-0.775c6.009 3.859 12.925 7.383 20.19 10.205l0.802 0.274c19.295 11.289 35.303 26.139 47.575 43.781l0.32 0.486c19.816 27.103 31.707 61.091 31.707 97.857 0 3.728-0.122 7.427-0.363 11.094l0.026-0.498c0 0.126 0 0.275 0 0.423 0 12.608-1.223 24.931-3.556 36.856l0.197-1.207c-7.079 69.929-65.642 124.049-136.845 124.049-4.941 0-9.82-0.261-14.626-0.769l0.599 0.051q-32.143-1.31-120.040-1.31l-3.359-7.859c-5.089-25.37-8.001-54.535-8.001-84.381 0-9.307 0.283-18.548 0.842-27.715l-0.061 1.258c-0.036-3.768-0.057-8.221-0.057-12.679 0-54.699 3.12-108.669 9.191-161.742l-0.603 6.486 10.513-86.587c6.155-1.958 13.24-3.119 20.586-3.19h0.037zM1530.425-62.69c-1.905-0.050-4.149-0.078-6.399-0.078-28.651 0-56.231 4.587-82.045 13.067l1.857-0.528c-20.905 4.979-38.548 16.635-51.003 32.548l-0.15 0.199c-8.566 19.703-13.549 42.654-13.549 66.769 0 4.682 0.188 9.32 0.556 13.906l-0.039-0.604c0.686 100.699 16.713 197.409 45.856 288.246l-1.89-6.82q53.739 174.652 106.269 301.107c7.052 18.634 13.889 33.763 21.507 48.423l-1.186-2.51 50.38 100.358c23.739 48.258 50.156 89.791 80.483 128.085l-1.117-1.462c17.805 24.864 46.281 41.105 78.593 41.981l0.135 0.003c1.193 0.057 2.591 0.090 3.997 0.090 14.689 0 28.549-3.546 40.772-9.829l-0.502 0.234c9.678-5.21 17.991-11.435 25.257-18.707l0.001-0.001c14.145-20.053 25.194-43.473 31.807-68.69l0.336-1.506c8.816-26.138 15.323-56.621 18.281-88.137l0.124-1.641q1.31-17.062 11.151-68.887 5.24-30.833 17.062-117.554 25.593-184.997 26.87-208.609 1.31-34.763 5.911-74.798 0.672-0.672 11.487-129.545t10.849-159.673c0.046-0.921 0.072-1.999 0.072-3.084 0-15.35-5.208-29.483-13.954-40.729l0.112 0.15c-8.478-10.308-21.234-16.832-35.513-16.832-0.658 0-1.312 0.014-1.963 0.041l0.093-0.003c-0.154-0.001-0.337-0.002-0.519-0.002-14.982 0-28.752 5.19-39.609 13.871l0.127-0.098c-5.481 4.544-9.596 10.558-11.752 17.439l-0.071 0.262c-8.339 24.288-13.153 52.273-13.153 81.383 0 1.145 0.007 2.288 0.022 3.429l-0.002-0.173q0 13.133-10.479 135.12-15.081 195.476-19.682 223.051c-22.902-0.198-45.041-3.052-66.251-8.268l1.966 0.409q-13.133-2.62-25.593-4.904t-17.7-24.586q-22.302-99.72-27.541-137.707l-26.299-150.873c-6.698-37.933-19.032-71.852-36.245-102.676l0.844 1.646c-10.556-23.689-27.779-42.816-49.279-55.448l-0.564-0.307c-10.323-4.195-22.299-6.629-34.843-6.629-1.366 0-2.725 0.029-4.076 0.086l0.193-0.006zM1742.392 508.692q45.275 6.717 77.25 13.771-2.62 72.817-6.717 116.11c-3.081 33.085-7.944 62.858-14.665 91.92l0.895-4.593c-2.397-9.26-4.587-20.841-6.092-32.636l-0.155-1.489c-3.22-21.506-6.993-39.685-11.652-57.507l0.837 3.768c-11.773-50.808-25.407-94-41.93-135.732l2.23 6.389zM2208.075-62.052c-0.479-0.018-1.041-0.028-1.606-0.028-9.671 0-18.653 2.947-26.099 7.992l0.164-0.105c-13.119 8.644-23.525 20.418-30.306 34.288l-0.224 0.508c-5.883 13.132-10.359 28.382-12.684 44.33l-0.113 0.945q-22.302 144.424-22.302 157.422c0.047 2.502 0.074 5.453 0.074 8.41 0 20.154-1.247 40.018-3.669 59.516l0.236-2.331c-1.304 11.014-2.047 23.772-2.047 36.703 0 2.318 0.024 4.63 0.071 6.936l-0.006-0.345q1.982 116.11 1.982 164.576-0.672 100.358-1.982 112.819c-0.844 8.7-1.325 18.807-1.325 29.027 0 1.096 0.006 2.19 0.017 3.283l-0.001-0.167c-0.114 5.257-0.178 11.453-0.178 17.665 0 36.315 2.213 72.113 6.51 107.267l-0.42-4.22q5.911 40.674 9.841 81.348c1.183 25.029 8.34 48.153 20.065 68.29l-0.383-0.713c15.898 21.739 41.312 35.699 69.987 35.699 2.379 0 4.736-0.096 7.066-0.285l-0.307 0.020c1.324 0.022 2.887 0.035 4.453 0.035 13.699 0 27.172-0.965 40.356-2.83l-1.515 0.176c8.74 3.335 18.847 5.266 29.405 5.266 0.738 0 1.474-0.009 2.208-0.028l-0.109 0.002 28.213 0.672c0.732 0.024 1.594 0.037 2.458 0.037 6.818 0 13.439-0.847 19.762-2.44l-0.556 0.119q7.859-2.284 36.744-7.557c43.539-5.288 79.315-33.853 94.84-72.7l0.278-0.788c6.418-15.309 10.257-33.084 10.512-51.725l0.001-0.1c-0.596-46.248-21.519-87.492-54.225-115.29l-0.219-0.182c40.799-9.442 76.12-28.91 104.462-55.687l-0.107 0.101 35.434-31.505c19.657-21.526 34.594-47.712 42.955-76.687l0.338-1.369c11.334-28.441 19.762-61.493 23.773-95.893l0.175-1.845q2.956-38.692 2.956-80.609c0.004-0.29 0.007-0.633 0.007-0.976 0-5.356-0.602-10.571-1.742-15.581l0.090 0.469c-1.054-4.658-1.657-10.007-1.657-15.497 0-0.456 0.004-0.911 0.012-1.365l-0.001 0.068c-0.129-21.734-2.778-42.785-7.67-62.96l0.382 1.865c-5.424-25.933-15.673-48.825-29.834-68.742l0.378 0.56c-1.114-1.394-2.006-3.024-2.589-4.794l-0.031-0.11q-0.672-2.284-2.62-7.557c-17.88-35.924-41.087-66.46-68.984-91.948l-0.239-0.215c-19.949-21.812-43.499-39.926-69.78-53.49l-1.39-0.652c-20.957-7.372-38.496-15.124-55.329-24.032l2.194 1.059c-25.402-14.191-55.062-24.349-86.575-28.702l-1.322-0.15c-31.494-3.361-68.033-5.278-105.019-5.278-1.136 0-2.272 0.002-3.408 0.005h0.176zM2277.601 691.203c15.682 0.123 30.809 2.273 45.202 6.199l-1.237-0.288c21.467 3.032 39.825 14.384 52.015 30.63l0.145 0.203c6.35 12.030 10.078 26.293 10.078 41.426 0 0.196-0.001 0.392-0.002 0.588v-0.030c0.005 0.291 0.008 0.635 0.008 0.979 0 4.412-0.48 8.712-1.391 12.85l0.073-0.394c-1.795 5.005-4.982 9.146-9.093 12.073l-0.077 0.052c-10.813 10.52-25.131 17.488-41.039 18.989l-0.273 0.021-76.108-0.672c1.243-3.926 1.967-8.442 1.982-13.125v-0.008l-1.31-81.986c-0.070-1.744-0.109-3.791-0.109-5.847 0-7.414 0.516-14.707 1.514-21.847l-0.094 0.824zM2278.91 60.138c0.127 0 0.277-0.001 0.427-0.001 13.4 0 26.353 1.914 38.6 5.483l-0.973-0.243q32.143 9.841 38.054 11.151c24.618 5.012 46.415 14.357 65.603 27.279l-0.646-0.41c10.527 9.485 18.961 21.073 24.672 34.123l0.249 0.639c16.301 26.167 28.238 56.845 33.907 89.669l0.217 1.519c0.134 4.156 0.211 9.043 0.211 13.948 0 17.971-1.028 35.703-3.030 53.138l0.199-2.129c-3.767 23.858-9.615 45.162-17.523 65.435l0.729-2.124c-3.528 4.321-6.859 9.14-9.795 14.217l-0.281 0.528c-14.386 25.228-36.672 44.548-63.439 54.83l-0.846 0.286c-36.724 15.665-79.352 25.403-124.074 26.855l-0.567 0.015q1.31-17.062 1.31-52.496 0-29.523-5.24-214.52 0-26.87 0.672-36.744 5.24-59.046 7.859-71.507 5.172-19.111 13.703-19.111zM2867.354-62.522c-1.905-0.050-4.149-0.078-6.399-0.078-28.651 0-56.231 4.587-82.045 13.067l1.857-0.528c-20.899 4.927-38.552 16.527-51.039 32.385l-0.147 0.194c-8.637 19.776-13.663 42.82-13.663 67.037 0 4.587 0.18 9.132 0.534 13.629l-0.038-0.594c0.698 100.703 16.737 197.411 45.89 288.245l-1.891-6.82q53.739 174.652 106.269 301.107c7.056 18.695 13.906 33.882 21.54 48.595l-1.187-2.514 50.38 100.358c23.739 48.258 50.156 89.791 80.483 128.085l-1.117-1.462c17.805 24.864 46.281 41.105 78.593 41.981l0.135 0.003c1.193 0.057 2.591 0.090 3.997 0.090 14.689 0 28.549-3.546 40.772-9.829l-0.502 0.234c9.678-5.21 17.991-11.435 25.257-18.707l0.001-0.001c14.145-20.053 25.194-43.473 31.807-68.69l0.336-1.506c8.813-26.173 15.31-56.693 18.249-88.247l0.123-1.632q1.31-17.062 11.151-68.887 5.24-30.833 17.062-117.554 25.593-184.997 26.87-208.609 1.31-34.763 5.911-74.798 0.672-0.672 11.487-129.545t10.949-159.74c0.046-0.921 0.072-1.999 0.072-3.084 0-15.35-5.208-29.483-13.954-40.729l0.112 0.15c-8.478-10.308-21.234-16.832-35.513-16.832-0.658 0-1.312 0.014-1.963 0.041l0.093-0.003c-0.154-0.001-0.337-0.002-0.519-0.002-14.982 0-28.752 5.19-39.609 13.871l0.127-0.098c-5.481 4.544-9.596 10.558-11.752 17.439l-0.071 0.262c-8.339 24.288-13.153 52.273-13.153 81.383 0 1.145 0.007 2.288 0.022 3.429l-0.002-0.173q0 13.133-10.479 135.12-15.081 195.476-19.682 223.051c-22.902-0.198-45.041-3.052-66.251-8.268l1.966 0.409q-13.133-2.62-25.593-4.904t-17.7-24.586q-22.302-99.72-27.541-137.707l-26.231-150.873c-6.721-37.937-19.076-71.854-36.312-102.672l0.844 1.643c-10.556-23.689-27.779-42.816-49.279-55.448l-0.564-0.307c-10.322-4.194-22.297-6.628-34.84-6.628-1.355 0-2.703 0.028-4.044 0.085l0.192-0.006zM3079.154 508.692q45.275 6.717 77.25 13.771-2.62 72.817-6.717 116.11c-3.081 33.085-7.944 62.858-14.665 91.92l0.895-4.593c-2.397-9.26-4.587-20.841-6.092-32.636l-0.155-1.489c-3.22-21.506-6.993-39.685-11.652-57.507l0.837 3.768c-11.773-50.808-25.407-94-41.93-135.732l2.23 6.389z" />
</font>
</defs>
</svg>
